<svg width="367" height="90" viewBox="0 0 367 90" fill="none" xmlns="http://www.w3.org/2000/svg">
<path d="M339.297 60.68C337.857 60.68 336.564 60.3733 335.417 59.76C334.297 59.1467 333.431 58.1867 332.817 56.88H332.737V60H326.697V30.24H332.977V36.76C332.977 37.6667 332.951 38.56 332.897 39.44C332.871 40.2933 332.831 41.04 332.777 41.68H332.897C333.617 40.5867 334.484 39.72 335.497 39.08C336.511 38.44 337.764 38.12 339.257 38.12C340.644 38.12 341.897 38.4 343.017 38.96C344.137 39.52 345.097 40.3067 345.897 41.32C346.697 42.3067 347.311 43.4933 347.737 44.88C348.191 46.24 348.417 47.7333 348.417 49.36C348.417 51.12 348.204 52.7067 347.777 54.12C347.351 55.5067 346.737 56.6933 345.937 57.68C345.137 58.64 344.177 59.3867 343.057 59.92C341.937 60.4267 340.684 60.68 339.297 60.68ZM337.617 55.64C339.084 55.64 340.177 55.0667 340.897 53.92C341.644 52.7733 342.017 51.24 342.017 49.32C342.017 47.4 341.644 45.8533 340.897 44.68C340.177 43.48 339.071 42.88 337.577 42.88C336.751 42.88 336.031 43.0533 335.417 43.4C334.831 43.72 334.337 44.1733 333.937 44.76C333.537 45.32 333.244 46 333.057 46.8C332.871 47.6 332.777 48.4533 332.777 49.36C332.777 51.2267 333.204 52.7467 334.057 53.92C334.911 55.0667 336.097 55.64 337.617 55.64Z" fill="white"/>
<path d="M317.134 60C316.974 59.76 316.827 59.4267 316.694 59C316.561 58.5467 316.467 58.0133 316.414 57.4H316.334C315.641 58.3867 314.801 59.16 313.814 59.72C312.854 60.28 311.547 60.56 309.894 60.56C308.854 60.56 307.881 60.4133 306.974 60.12C306.094 59.8533 305.321 59.4533 304.654 58.92C304.014 58.3867 303.507 57.72 303.134 56.92C302.787 56.0933 302.614 55.16 302.614 54.12C302.614 52.9467 302.827 51.9733 303.254 51.2C303.707 50.4267 304.307 49.8 305.054 49.32C305.801 48.84 306.681 48.48 307.694 48.24C308.707 47.9733 309.801 47.7733 310.974 47.64C312.867 47.3733 314.227 47.0533 315.054 46.68C315.907 46.3067 316.334 45.72 316.334 44.92C316.334 44.1467 316.081 43.5333 315.574 43.08C315.067 42.6 314.267 42.36 313.174 42.36C311.974 42.36 311.067 42.6133 310.454 43.12C309.867 43.6267 309.534 44.3067 309.454 45.16H303.654C303.681 44.2533 303.894 43.3733 304.294 42.52C304.694 41.6667 305.281 40.92 306.054 40.28C306.827 39.6133 307.801 39.0933 308.974 38.72C310.147 38.32 311.521 38.12 313.094 38.12C314.454 38.12 315.627 38.2267 316.614 38.44C317.601 38.6267 318.467 38.9467 319.214 39.4C320.334 40.04 321.147 40.9067 321.654 42C322.187 43.0667 322.454 44.32 322.454 45.76V56.68C322.454 58.3067 322.721 59.2933 323.254 59.64V60H317.134ZM311.854 56.44C313.267 56.44 314.387 56.0533 315.214 55.28C316.067 54.5067 316.494 53.5333 316.494 52.36V49.6C316.041 49.8933 315.481 50.1333 314.814 50.32C314.174 50.48 313.507 50.64 312.814 50.8C311.427 51.0933 310.401 51.4533 309.734 51.88C309.067 52.3067 308.734 52.9867 308.734 53.92C308.734 54.8533 309.041 55.5067 309.654 55.88C310.267 56.2533 311.001 56.44 311.854 56.44Z" fill="white"/>
<path d="M279.403 30.24H286.203V54.16H299.923V60H279.403V30.24Z" fill="white"/>
<path d="M254.663 67.4C251.73 67.4 249.37 66.8133 247.583 65.64C245.796 64.4933 244.743 62.8667 244.423 60.76H250.543C250.756 61.4 251.17 61.92 251.783 62.32C252.423 62.72 253.356 62.92 254.583 62.92C256.076 62.92 257.183 62.56 257.903 61.84C258.65 61.12 259.023 60.1067 259.023 58.8V58.36C259.023 57.2133 259.063 56.28 259.143 55.56H258.983C257.73 57.64 255.81 58.68 253.223 58.68C251.996 58.68 250.823 58.4667 249.703 58.04C248.583 57.5867 247.596 56.9333 246.743 56.08C245.89 55.2 245.21 54.1333 244.703 52.88C244.196 51.6267 243.943 50.2 243.943 48.6C243.943 47.0533 244.156 45.64 244.583 44.36C245.036 43.0533 245.663 41.9467 246.463 41.04C247.263 40.1067 248.21 39.3867 249.303 38.88C250.396 38.3733 251.596 38.12 252.903 38.12C254.343 38.12 255.57 38.3733 256.583 38.88C257.596 39.3867 258.41 40.24 259.023 41.44H259.103V38.72H265.103V58.12C265.103 59.72 264.85 61.08 264.343 62.2C263.863 63.3467 263.196 64.3067 262.343 65.08C261.41 65.88 260.29 66.4667 258.983 66.84C257.676 67.2133 256.236 67.4 254.663 67.4ZM254.623 53.96C255.423 53.96 256.103 53.8267 256.663 53.56C257.25 53.2667 257.73 52.8667 258.103 52.36C258.503 51.8533 258.783 51.2667 258.943 50.6C259.13 49.9333 259.223 49.2 259.223 48.4C259.223 46.8267 258.836 45.52 258.063 44.48C257.29 43.4133 256.13 42.88 254.583 42.88C253.196 42.88 252.103 43.3867 251.303 44.4C250.503 45.3867 250.103 46.7333 250.103 48.44C250.103 50.12 250.503 51.4667 251.303 52.48C252.103 53.4667 253.21 53.96 254.623 53.96Z" fill="white"/>
<path d="M226.723 41.96H226.843C227.509 40.68 228.389 39.72 229.483 39.08C230.603 38.44 231.909 38.12 233.403 38.12C235.749 38.12 237.563 38.84 238.843 40.28C240.149 41.6933 240.803 43.6 240.803 46V60H234.563V47.2C234.563 46.0267 234.256 45.0933 233.643 44.4C233.056 43.68 232.176 43.32 231.003 43.32C229.776 43.32 228.789 43.76 228.043 44.64C227.296 45.52 226.923 46.64 226.923 48V60H220.643V38.72H226.723V41.96Z" fill="white"/>
<path d="M207.054 60.64C205.321 60.64 203.761 60.36 202.374 59.8C200.988 59.2133 199.801 58.4133 198.814 57.4C197.854 56.3867 197.108 55.2 196.574 53.84C196.068 52.48 195.814 51 195.814 49.4C195.814 47.8 196.081 46.32 196.614 44.96C197.148 43.5733 197.894 42.3733 198.854 41.36C199.814 40.3467 200.961 39.56 202.294 39C203.628 38.4133 205.108 38.12 206.734 38.12C208.254 38.12 209.614 38.36 210.814 38.84C212.041 39.32 213.121 39.9867 214.054 40.84C215.254 42.0133 216.134 43.4667 216.694 45.2C217.254 46.9333 217.521 48.8533 217.494 50.96H201.974C202.188 52.56 202.721 53.8133 203.574 54.72C204.428 55.6267 205.614 56.08 207.134 56.08C208.121 56.08 208.921 55.9067 209.534 55.56C210.174 55.1867 210.668 54.6667 211.014 54H217.094C216.828 54.9333 216.401 55.8133 215.814 56.64C215.254 57.44 214.548 58.1467 213.694 58.76C212.868 59.3467 211.894 59.8 210.774 60.12C209.654 60.4667 208.414 60.64 207.054 60.64ZM206.734 42.56C205.294 42.56 204.201 42.9867 203.454 43.84C202.708 44.6933 202.228 45.8533 202.014 47.32H211.094C210.988 45.8267 210.548 44.6667 209.774 43.84C209.001 42.9867 207.988 42.56 206.734 42.56Z" fill="white"/>
<path d="M178.954 38.44C178.954 38.4933 178.954 38.6267 178.954 38.84C178.954 39.0533 178.954 39.32 178.954 39.64C178.954 39.96 178.94 40.3067 178.914 40.68C178.914 41.0533 178.914 41.4133 178.914 41.76H179.034C179.674 40.6133 180.527 39.72 181.594 39.08C182.66 38.44 183.94 38.12 185.434 38.12C187.78 38.12 189.594 38.84 190.874 40.28C192.18 41.6933 192.834 43.6 192.834 46V60H186.594V47.2C186.594 46.0267 186.287 45.0933 185.674 44.4C185.087 43.68 184.207 43.32 183.034 43.32C181.807 43.32 180.82 43.76 180.074 44.64C179.327 45.52 178.954 46.64 178.954 48V60H172.674V30.24H178.954V38.44Z" fill="white"/>
<path d="M156.513 60.68C154.353 60.68 152.366 60.2933 150.553 59.52C148.766 58.7467 147.233 57.68 145.953 56.32C144.673 54.9333 143.673 53.2933 142.953 51.4C142.26 49.5067 141.913 47.4533 141.913 45.24C141.913 43.0267 142.26 40.9733 142.953 39.08C143.646 37.1867 144.62 35.5467 145.873 34.16C147.153 32.7733 148.686 31.6933 150.473 30.92C152.286 30.12 154.3 29.72 156.513 29.72C158.166 29.72 159.686 29.92 161.073 30.32C162.46 30.6933 163.66 31.2667 164.673 32.04C166.033 33.0267 167.086 34.2267 167.833 35.64C168.606 37.0533 169.086 38.6 169.273 40.28H162.473C162.26 38.8667 161.62 37.7067 160.553 36.8C159.513 35.8667 158.153 35.4 156.473 35.4C155.193 35.4 154.073 35.6533 153.113 36.16C152.18 36.64 151.393 37.32 150.753 38.2C150.14 39.08 149.673 40.12 149.353 41.32C149.033 42.52 148.873 43.8267 148.873 45.24C148.873 46.6533 149.046 47.96 149.393 49.16C149.766 50.36 150.273 51.4 150.913 52.28C151.58 53.1333 152.38 53.8133 153.313 54.32C154.273 54.8 155.34 55.04 156.513 55.04C158.353 55.04 159.806 54.52 160.873 53.48C161.94 52.44 162.553 51.1467 162.713 49.6H169.553C169.446 51.0933 169.073 52.5067 168.433 53.84C167.793 55.1467 166.966 56.3067 165.953 57.32C164.833 58.44 163.5 59.28 161.953 59.84C160.406 60.4 158.593 60.68 156.513 60.68Z" fill="white"/>
<path d="M115.004 41.96H115.124C115.79 40.68 116.67 39.72 117.764 39.08C118.884 38.44 120.19 38.12 121.684 38.12C124.03 38.12 125.844 38.84 127.124 40.28C128.43 41.6933 129.084 43.6 129.084 46V60H122.844V47.2C122.844 46.0267 122.537 45.0933 121.924 44.4C121.337 43.68 120.457 43.32 119.284 43.32C118.057 43.32 117.07 43.76 116.324 44.64C115.577 45.52 115.204 46.64 115.204 48V60H108.924V38.72H115.004V41.96Z" fill="white"/>
<path d="M99.3606 60C99.2006 59.76 99.054 59.4267 98.9206 59C98.7873 58.5467 98.694 58.0133 98.6406 57.4H98.5606C97.8673 58.3867 97.0273 59.16 96.0406 59.72C95.0806 60.28 93.774 60.56 92.1207 60.56C91.0807 60.56 90.1073 60.4133 89.2006 60.12C88.3206 59.8533 87.5473 59.4533 86.8806 58.92C86.2406 58.3867 85.734 57.72 85.3606 56.92C85.014 56.0933 84.8406 55.16 84.8406 54.12C84.8406 52.9467 85.054 51.9733 85.4806 51.2C85.934 50.4267 86.534 49.8 87.2806 49.32C88.0273 48.84 88.9073 48.48 89.9206 48.24C90.934 47.9733 92.0273 47.7733 93.2006 47.64C95.094 47.3733 96.454 47.0533 97.2806 46.68C98.134 46.3067 98.5606 45.72 98.5606 44.92C98.5606 44.1467 98.3073 43.5333 97.8007 43.08C97.294 42.6 96.494 42.36 95.4007 42.36C94.2007 42.36 93.294 42.6133 92.6806 43.12C92.094 43.6267 91.7606 44.3067 91.6806 45.16H85.8806C85.9073 44.2533 86.1206 43.3733 86.5206 42.52C86.9206 41.6667 87.5073 40.92 88.2806 40.28C89.054 39.6133 90.0273 39.0933 91.2006 38.72C92.374 38.32 93.7473 38.12 95.3206 38.12C96.6806 38.12 97.854 38.2267 98.8407 38.44C99.8273 38.6267 100.694 38.9467 101.441 39.4C102.561 40.04 103.374 40.9067 103.881 42C104.414 43.0667 104.681 44.32 104.681 45.76V56.68C104.681 58.3067 104.947 59.2933 105.481 59.64V60H99.3606ZM94.0807 56.44C95.494 56.44 96.614 56.0533 97.4407 55.28C98.294 54.5067 98.7206 53.5333 98.7206 52.36V49.6C98.2673 49.8933 97.7073 50.1333 97.0406 50.32C96.4006 50.48 95.734 50.64 95.0406 50.8C93.654 51.0933 92.6273 51.4533 91.9606 51.88C91.294 52.3067 90.9606 52.9867 90.9606 53.92C90.9606 54.8533 91.2673 55.5067 91.8806 55.88C92.494 56.2533 93.2273 56.44 94.0807 56.44Z" fill="white"/>
<path d="M75.2147 30.24H81.5347V60H75.2147V30.24Z" fill="white"/>
<path d="M64.6288 30.24H70.9488V60H64.6288V30.24Z" fill="white"/>
<path d="M50.9606 60.64C49.2273 60.64 47.6673 60.36 46.2806 59.8C44.894 59.2133 43.7073 58.4133 42.7206 57.4C41.7606 56.3867 41.014 55.2 40.4806 53.84C39.974 52.48 39.7206 51 39.7206 49.4C39.7206 47.8 39.9873 46.32 40.5206 44.96C41.054 43.5733 41.8006 42.3733 42.7606 41.36C43.7206 40.3467 44.8673 39.56 46.2006 39C47.534 38.4133 49.014 38.12 50.6406 38.12C52.1606 38.12 53.5206 38.36 54.7206 38.84C55.9473 39.32 57.0273 39.9867 57.9606 40.84C59.1606 42.0133 60.0406 43.4667 60.6006 45.2C61.1606 46.9333 61.4273 48.8533 61.4006 50.96H45.8806C46.094 52.56 46.6273 53.8133 47.4806 54.72C48.334 55.6267 49.5206 56.08 51.0406 56.08C52.0273 56.08 52.8273 55.9067 53.4406 55.56C54.0806 55.1867 54.574 54.6667 54.9206 54H61.0006C60.734 54.9333 60.3073 55.8133 59.7206 56.64C59.1606 57.44 58.454 58.1467 57.6006 58.76C56.774 59.3467 55.8006 59.8 54.6806 60.12C53.5606 60.4667 52.3206 60.64 50.9606 60.64ZM50.6406 42.56C49.2006 42.56 48.1073 42.9867 47.3606 43.84C46.614 44.6933 46.134 45.8533 45.9206 47.32H55.0006C54.894 45.8267 54.454 44.6667 53.6806 43.84C52.9073 42.9867 51.894 42.56 50.6406 42.56Z" fill="white"/>
<path d="M14.52 30.24H27.76C31.2267 30.24 33.88 31.16 35.72 33C36.6267 33.9067 37.32 34.96 37.8 36.16C38.3067 37.3333 38.56 38.6533 38.56 40.12C38.56 41.5333 38.32 42.8267 37.84 44C37.3867 45.1733 36.72 46.1867 35.84 47.04C34.9867 47.8667 33.9467 48.52 32.72 49C31.4934 49.4533 30.1067 49.68 28.56 49.68H21.44V60H14.52V30.24ZM21.44 44.28H27.24C28.68 44.28 29.7734 43.9067 30.52 43.16C31.2934 42.4133 31.68 41.4 31.68 40.12C31.68 38.8133 31.2934 37.8133 30.52 37.12C29.7734 36.4 28.6934 36.04 27.28 36.04H21.44V44.28Z" fill="white"/>
</svg>
