<?xml version="1.0" encoding="UTF-8"?>
<svg id="Layer_2" data-name="Layer 2" xmlns="http://www.w3.org/2000/svg" viewBox="0 0 800 800">
  <defs>
    <style>
      .cls-1 {
        fill: #2f9cb1;
      }

      .cls-1, .cls-2, .cls-3 {
        stroke-width: 0px;
      }

      .cls-2 {
        fill: none;
      }

      .cls-3 {
        fill: #000;
      }
    </style>
  </defs>
  <g id="dna">
    <g>
      <path class="cls-1" d="M451.65,274.86c-23.77,27.01-36.61,61.66-41.62,96.92-4.5,31.6,7.97,59.83-6.24,90.26-9.33,19.97-23.41,37.57-31.43,58.1s-8.53,46.46,7.07,62.04c16.3,16.28,43.38,14.89,65.01,6.97,34.1-12.48,62.97-38.65,78.72-71.37,29.43-61.11-3.28-131.32,20.08-192.94,10.02-26.42,44.55-72.59,6.84-93.13-30.99-16.87-79.76,21.94-98.42,43.15Z"/>
      <rect class="cls-2" width="800" height="800"/>
      <g>
        <path class="cls-3" d="M222.73,700.43l-1.97-.36c3.05-16.64,8.09-28.3,15.75-42.81,15.91-30.13,45.96-43.14,75.02-55.72,7.14-3.09,14.52-6.29,21.59-9.69,3.66-1.97,7.48-3.82,11.17-5.6,6.72-3.24,13.09-6.31,18.97-10.29l-38.98-14.54-10.38-24.63,69.31,25.86c10.55-7.69,19.98-15.93,28.05-24.52-13.06-4.3-100.26-33.46-101.19-33.78l-.49-.16-.15-.49c-.98-3.15-5.87-18.98-5.92-20.67l-.04-1.39,1.33.41c5.44,1.69,114.88,36.65,119.35,38.08,2.69-1.56,15.84-19.33,17.14-28.99-23.65-7.44-136.72-43.2-142.68-48.89l-.14-.13-.08-.18c-1.45-3.18.86-12.63,1.13-13.69l.26-1.04,1.02.33c26.21,8.47,52.81,16.02,78.54,23.32,22.04,6.25,44.82,12.71,66.93,19.65.87-6.59,2.74-30.81,1.57-33.74-31.51-10.87-64.67-19.22-96.73-27.28-13.1-3.3-26.65-6.71-39.96-10.25l-1.08-.29.41-1.04c2.42-6.22,9.88-15.24,16.62-20.11l.39-.28.46.13c36.48,10.25,107.2,32.41,118.36,35.92-1.63-12.4-3.7-21.97-9.26-35.22l-86.16-26.89,1.12-1.17c3.23-3.38,17.76-8.99,18.38-9.22l.33-.13,64.39,21.01c-2.35-8.56-12.28-46.42-16.94-90.46-4.88-46.15-4.8-108.73,23.31-144.78,41.04-49.44,102.93-58.55,136.18-59.58l.06,2c-32.91,1.02-94.16,10.02-134.68,58.83-27.69,35.5-27.73,97.53-22.88,143.31,5.26,49.72,17.26,91.51,17.38,91.92l.53,1.82-67.29-21.96c-3.75,1.46-12.22,5-15.96,7.52l83.72,26.13.18.43c5.98,14.17,8.11,24.56,9.78,37.72l.2,1.55-1.49-.47c-.8-.25-79.71-25.08-119.32-36.23-5.9,4.4-12.49,12.24-15.1,17.9,12.93,3.44,26.08,6.75,38.81,9.95,32.19,8.1,65.47,16.47,97.15,27.42.95.36,2.11.79,1.05,17.96-.52,8.43-1.39,17.24-1.72,19.07l-.2,1.12-1.08-.34c-22.44-7.06-45.6-13.63-68-19.98-25.41-7.21-51.68-14.66-77.58-23.01-.86,3.73-1.74,9.22-1.07,11.15,6.12,4.87,91.94,32.64,142.11,48.41l1.17.38-.05.78c-.7,10.18-15.32,30.34-18.69,31.59-.41.15-.82.13-1.14-.05-4.27-1.37-103.02-32.91-117.72-37.57.9,3.54,3.53,12.24,5.36,18.15,7.51,2.51,98.3,32.88,102.17,34.09l1.51.47-1.07,1.16c-8.5,9.22-18.54,18.04-29.84,26.24l-.43.31-65.97-24.62,8.25,19.56,41.72,15.57-1.53,1.09c-6.44,4.62-13.75,8.14-20.82,11.55-3.67,1.77-7.47,3.6-11.13,5.58-7.15,3.44-14.55,6.64-21.7,9.74-28.74,12.44-58.46,25.31-74.04,54.82-7.57,14.34-12.54,25.85-15.55,42.23Z"/>
        <path class="cls-3" d="M340.25,740.52l-104.74-39.08.7-1.87,102.51,38.25,2.47-13.22-101.2-37.76.23-.88c4.8-18.15,11.73-28.7,27.46-41.81l.5-.41,65.8,31.85,3.02-7.36-60.11-31.44,1.37-.94c.17-.12,17.06-11.66,30.7-18.95,8.01-4.53,17.76-8.74,28.08-13.19,17.37-7.5,37.06-16,56.58-29.19,24.25-16.38,43.8-39.74,56.52-67.54,12.66-27.67,17.71-57.81,14.6-87.18-2.66-25.07-9.34-49.71-14.87-68.37-1.61-5.43-3.28-10.54-4.89-15.48-4.76-14.61-9.26-28.41-11.86-48.71-3.58-28.08-3.04-48.08-2.24-52.9l.26-1.54,5.46,3.7c9.46,6.41,17.62,11.94,27.32,18.73,8.56,5.86,23.78,14.65,26.07,15.96,1.72-.22,9.93-1.4,16.03-4.23-5.69-4.07-11.39-8.18-17.09-12.29-18.21-13.12-37.03-26.68-55.39-39.04l-.4-.27-.04-.48c-1.11-13.81,2.52-30.83,9.95-46.69l.57-1.23,1,.91c2.07,1.88,68.73,51.57,104.16,77.93,2.08-1.15,9.5-5.32,13.41-8.69-17.37-11.63-85.77-64.62-105.45-83.72-1.12-.72-1.78-1.67-1.98-2.84-.52-3.07,2.41-6.7,4.99-9.91.77-.95,1.49-1.85,2-2.59l.08-.1c10.3-11.64,22.24-20.92,36.51-28.36l.67-.35.52.56c14.43,15.49,35.84,40.09,54.73,61.8,16.81,19.32,32.74,37.62,35.95,40.41,5.26-4.61,9.26-8.32,11.92-11.06-10.84-13.07-25.15-29.47-38.99-45.33-22.52-25.82-41.98-48.11-44.12-53.19l-.4-.95.96-.37c12.79-4.99,24.94-8.65,36.1-10.88l.58-.12,64.91,78.08c1.88-1.66,7-6.41,11.82-13.15l-62.89-71.24,1.5-1.32,63.93,72.42-.45.65c-6.31,9.04-13.11,14.61-13.4,14.84l-.77.62-65.43-78.71c-10.59,2.16-22.07,5.61-34.15,10.27,3.7,6.34,22.97,28.42,43.3,51.73,14.09,16.15,28.67,32.85,39.59,46.06l.56.68-.61.64c-2.72,2.87-7.07,6.93-12.92,12.05l-.6.53-.46-.02c-1.34-.09-6.59-5.89-37.46-41.34-18.65-21.43-39.77-45.69-54.17-61.19-13.74,7.26-25.27,16.27-35.23,27.51-.55.8-1.29,1.71-2.06,2.67-2.09,2.59-4.95,6.13-4.58,8.32.11.62.47,1.11,1.16,1.53l.17.13c19.96,19.41,90.92,74.29,106.3,84.26l1.04.68-.89.87c-4.26,4.2-14.89,9.93-15.34,10.17l-.56.3-.51-.38c-3.97-2.95-92.84-69.08-103.78-77.59-6.84,15.04-10.2,31-9.27,44.05,18.25,12.31,36.95,25.78,55.04,38.81,6.15,4.43,12.3,8.86,18.44,13.25l1.3.93-1.4.76c-7.18,3.9-18.08,5.17-18.54,5.23l-.33.04-.28-.16c-.17-.1-17.19-9.85-26.5-16.21-9.69-6.79-17.85-12.32-27.3-18.72l-2.81-1.91c-.69,7.08-.64,26.55,2.45,50.74,2.57,20.12,7.04,33.83,11.77,48.35,1.62,4.95,3.29,10.08,4.9,15.53,5.55,18.74,12.27,43.49,14.94,68.73,3.15,29.73-1.96,60.23-14.77,88.23-12.88,28.14-32.66,51.78-57.22,68.37-19.68,13.3-39.46,21.84-56.91,29.37-10.27,4.44-19.97,8.63-27.91,13.11-11.29,6.04-24.84,15.01-29.15,17.91l58.77,30.74-4.52,11.02-66.55-32.21c-14.77,12.41-21.46,22.53-26.08,39.5l101.07,37.71-3.21,17.21Z"/>
        <path class="cls-3" d="M447.69,298.49l-.54-1.93c21.41-5.98,53.32-15.06,83.01-24.79,48.37-15.86,77.86-47.93,94.08-72.04,17.6-26.16,23.83-48.87,23.89-49.09l1.93.52c-.06.23-6.35,23.2-24.12,49.63-16.4,24.4-46.22,56.84-95.16,72.88-29.73,9.75-61.67,18.83-83.1,24.82Z"/>
        <path class="cls-3" d="M316.85,587.62c-1.81-3.65-3.62-7.08-5.37-10.4-9.3-17.64-18.09-34.3-27.53-82.58-4.32-22.08-9.45-64.06,4.69-97.06,13.28-31,43.21-52.06,55.47-59.67,21-13.05,43.18-23.42,65.92-30.84l.62,1.9c-22.59,7.37-44.62,17.68-65.48,30.64-12.09,7.51-41.63,28.27-54.68,58.76-13.92,32.51-8.83,74.03-4.56,95.89,9.38,48,18.1,64.53,27.33,82.03,1.76,3.33,3.57,6.77,5.4,10.44l-1.79.89Z"/>
        <path class="cls-3" d="M365.03,728.1l-2-.13c2.66-41.85-31.08-102.07-31.42-102.67l1.74-.98c.34.61,34.37,61.34,31.67,103.78Z"/>
      </g>
    </g>
  </g>
</svg>