<?xml version="1.0" encoding="UTF-8"?>
<svg id="Layer_2" data-name="Layer 2" xmlns="http://www.w3.org/2000/svg" viewBox="0 0 40.68 37.51">
  <defs>
    <style>
      .cls-1 {
        fill: #feb35d;
        stroke-width: 0px;
      }
    </style>
  </defs>
  <g id="icons">
    <path class="cls-1" d="M40.65,20.63c-.12-.86-.58-1.62-1.27-2.14-.7-.52-1.55-.74-2.42-.61-.86.12-1.62.58-2.14,1.27s-.74,1.55-.61,2.41c.12.86.58,1.62,1.27,2.14.04.03.08.05.12.08l-1.74,5.14c-.36-.09-.72-.16-1.11-.16-.74,0-1.42.2-2.03.52l-3.05-3.18c1.37-1.55,2.21-3.57,2.21-5.79,0-3.6-2.18-6.69-5.29-8.04l.63-3.57c.1,0,.19.03.28.03,2.41,0,4.37-1.96,4.37-4.37s-1.96-4.37-4.37-4.37-4.37,1.96-4.37,4.37c0,1.79,1.08,3.33,2.62,4l-.61,3.44c-.65-.16-1.33-.25-2.03-.25-2.27,0-4.33.87-5.89,2.3l-3.56-3.3c.88-1.11,1.4-2.51,1.4-4.03,0-3.6-2.93-6.54-6.54-6.54S0,2.93,0,6.54c0,2.91,1.91,5.38,4.55,6.22v6.19c-1.42.51-2.34,1.97-2.11,3.53.23,1.62,1.63,2.79,3.22,2.79.15,0,.31-.01.47-.03,1.78-.26,3.01-1.91,2.76-3.69-.12-.86-.58-1.62-1.27-2.14-.46-.35-1-.54-1.56-.61v-5.75c.16.01.32.02.48.02,1.54,0,2.96-.54,4.08-1.44l3.6,3.33c-1.15,1.48-1.85,3.34-1.85,5.36,0,2.21.83,4.22,2.18,5.76l-3.94,3.43c-.7-.47-1.54-.74-2.44-.74-2.41,0-4.37,1.96-4.37,4.37s1.96,4.37,4.37,4.37,4.37-1.96,4.37-4.37c0-.97-.33-1.85-.86-2.58l3.94-3.43c1.5,1.22,3.42,1.95,5.5,1.95s3.97-.72,5.47-1.93l2.94,3.06c-.7.78-1.15,1.8-1.15,2.93,0,2.41,1.96,4.37,4.37,4.37s4.37-1.96,4.37-4.37c0-1.49-.75-2.8-1.89-3.59l1.77-5.23c.14.02.28.03.42.03.16,0,.31-.01.47-.03.86-.12,1.62-.58,2.14-1.27s.74-1.55.61-2.42ZM22.63,4.37c0-1.58,1.29-2.87,2.87-2.87s2.87,1.29,2.87,2.87-1.29,2.87-2.87,2.87-2.87-1.29-2.87-2.87ZM7.4,21.76c.14.96-.53,1.85-1.49,1.99-.96.14-1.85-.53-1.99-1.49-.14-.96.53-1.85,1.49-1.99.09-.01.17-.02.26-.02.38,0,.74.12,1.05.35.38.28.62.69.69,1.15ZM6.53,11.57c-2.78,0-5.03-2.26-5.03-5.03S3.76,1.5,6.53,1.5s5.04,2.26,5.04,5.04-2.26,5.03-5.04,5.03ZM8.17,36.01c-1.58,0-2.87-1.29-2.87-2.87s1.29-2.87,2.87-2.87,2.87,1.29,2.87,2.87-1.29,2.87-2.87,2.87ZM13.86,20.33c0-4,3.25-7.26,7.26-7.26s7.26,3.25,7.26,7.26-3.25,7.26-7.26,7.26-7.26-3.26-7.26-7.26ZM32.75,36.01c-1.58,0-2.87-1.29-2.87-2.87s1.29-2.87,2.87-2.87,2.87,1.29,2.87,2.87-1.29,2.87-2.87,2.87ZM38.83,22.15c-.28.38-.69.62-1.15.69h0c-.46.07-.93-.05-1.3-.33-.38-.28-.62-.69-.69-1.15-.07-.46.05-.93.33-1.3.28-.38.69-.62,1.15-.69.09-.01.17-.02.26-.02.38,0,.74.12,1.05.35.38.28.62.69.69,1.15.07.46-.05.93-.33,1.3Z"/>
  </g>
</svg>