<?xml version="1.0" encoding="UTF-8"?>
<svg id="Layer_2" data-name="Layer 2" xmlns="http://www.w3.org/2000/svg" viewBox="0 0 800 800">
  <defs>
    <style>
      .cls-1 {
        fill: none;
      }

      .cls-1, .cls-2, .cls-3 {
        stroke-width: 0px;
      }

      .cls-2 {
        fill: #000;
      }

      .cls-3 {
        fill: #a6c6c9;
      }
    </style>
  </defs>
  <g id="computer">
    <g>
      <path class="cls-3" d="M363.43,439.45c23.15,75.87,104.97,132.44,181.56,86.42,20.58-12.36,34.85-38.8,25.41-60.88-9.43-22.06-36.04-29.65-56.57-42.06-42.77-25.86-52.22-71.05-49.24-116.96,1.54-23.72.2-39.06-24.11-54.15-20.03-12.43-37.4-8.82-53.19,9.09-39.2,44.45-40.13,125.18-23.86,178.53Z"/>
      <rect class="cls-1" width="800" height="800"/>
      <g>
        <path class="cls-2" d="M139.54,508.94l-.3-.94-76.8-241.26c-2.52-7.62-1.98-23.95,18.07-31.09,26.23-9.34,55.04-13.89,82.9-18.28,10.7-1.69,21.76-3.43,32.31-5.41,28.94-5.41,58.54-10.24,87.15-14.9,26.51-4.32,53.92-8.79,80.84-13.73,7.8-1.43,16.64-3.05,24.89-.29,15.24,5.1,17.79,23.72,19.84,38.68.29,2.1.57,4.14.87,6.06,2.63,16.64,5.24,33.28,7.85,49.92,5.69,36.27,11.36,72.55,17.02,108.82.05.3.24,1.46.53,3.17,4.93,29.05,4.88,29.06,3.68,29.43-.27.08-297.91,89.54-297.91,89.54l-.94.28ZM378.58,183.55c-4.94,0-9.91.91-14.51,1.76-26.94,4.94-54.36,9.41-80.88,13.73-28.6,4.66-58.18,9.48-87.11,14.89-10.58,1.98-21.65,3.73-32.37,5.42-27.77,4.38-56.49,8.91-82.54,18.19-23.2,8.26-17.11,27.77-16.84,28.59l76.51,240.34c130.45-39.21,284.51-85.51,296.26-89.04-.34-3.66-3.33-21.31-4.37-27.39-.29-1.72-.49-2.89-.54-3.19-5.66-36.28-11.33-72.55-17.02-108.82-2.61-16.64-5.22-33.28-7.85-49.92-.31-1.93-.59-3.98-.88-6.1-1.98-14.41-4.43-32.35-18.49-37.05-3.04-1.02-6.21-1.4-9.38-1.4Z"/>
        <polygon class="cls-2" points="271.22 643.7 270.78 643.25 139.48 508.4 140.91 507.01 271.78 641.4 608.68 529.33 437.56 419 438.65 417.32 613.27 529.91 271.22 643.7"/>
        <path class="cls-2" d="M694.07,540.09c-.31,0-.62-.02-.93-.08-1.35-.23-2.39-.96-3.03-2.1-1.15-2.07-.68-4.95.06-6.78,1.44-3.55,4.5-6.17,7.19-8.48l.12-.1c2.54-2.17,5.4-4.1,8.52-5.73-.3-.94-.66-1.86-1.09-2.77-2.67-5.64-7.1-10.16-10.66-13.47-8.07-7.5-19.12-17.77-17.86-30.76.5-5.15,2.91-9.69,5.24-14.07,1.66-3.12,3.37-6.34,4.35-9.72,3.91-13.51-4.46-27.6-14.33-34-9.32-6.04-21.4-8.23-36.96-6.68-8.55.85-17.29,2.86-25.75,4.8-10.75,2.47-21.88,5.02-32.8,5.26-8.12.17-15.24-2.34-20.09-7.09-2.06-2.01-3.72-4.42-5.33-6.76-2.04-2.95-3.96-5.73-6.58-7.75-6.24-4.8-15.99-4.37-26.09,1.15-16.93,9.25-33.22,20.19-51.26,34.41l-1.24-1.57c18.13-14.29,34.51-25.29,51.54-34.59,10.82-5.91,21.38-6.28,28.27-.98,2.87,2.21,4.97,5.25,7.01,8.2,1.56,2.26,3.17,4.59,5.09,6.46,4.47,4.37,11.08,6.68,18.65,6.52,10.72-.23,21.74-2.76,32.4-5.21,8.52-1.96,17.33-3.98,26-4.84,16.01-1.59,28.52.7,38.24,7,10.47,6.79,19.34,21.79,15.16,36.23-1.04,3.58-2.8,6.89-4.5,10.1-2.34,4.41-4.55,8.57-5.02,13.32-1.16,12,9.47,21.89,17.23,29.1,3.69,3.43,8.29,8.13,11.1,14.08.42.89.79,1.8,1.09,2.72,9.37-4.43,20.22-6.1,30.75-4.7l-.26,1.98c-10.26-1.37-20.83.29-29.93,4.67.32,1.34.53,2.72.63,4.16.17,2.46-.56,5.25-2.16,8.3-2.13,4.05-5.44,7.22-9.32,8.92-.87.38-2.1.84-3.44.84ZM706.53,518.8c-2.83,1.51-5.43,3.28-7.74,5.26l-.11.1c-2.52,2.16-5.38,4.61-6.64,7.71-.6,1.49-.91,3.71-.17,5.06.34.61.87.97,1.62,1.1.88.15,1.9-.05,3.22-.62,3.47-1.52,6.43-4.37,8.35-8.02,1.43-2.72,2.08-5.15,1.94-7.23-.08-1.16-.24-2.27-.47-3.36Z"/>
        <path class="cls-2" d="M736.6,584.15c-1.28,0-2.58-.08-3.89-.25-9.24-1.17-17.63-6.05-23.9-10.17-11.29-7.41-21.68-16.33-30.89-26.51-5.52-6.11-12-14.4-13.07-24.32-.8-7.45,2.57-15.16,9.74-22.3,10.55-10.5,28.11-18.02,39.18-16.77,12.85,1.45,25.3,9.25,34.14,21.39,7.58,10.41,12.63,24.11,14.62,39.62,1.72,13.45-.2,23.68-5.69,30.41-4.61,5.65-12.13,8.89-20.24,8.89ZM711.18,485.7c-10.55,0-25.73,6.93-35.17,16.33-4.69,4.67-10.09,12.05-9.17,20.67h0c1.01,9.35,7.25,17.31,12.57,23.19,9.09,10.06,19.35,18.86,30.5,26.18,6.09,4,14.22,8.73,23.05,9.85,8.87,1.13,17.42-1.91,22.32-7.92,5.13-6.29,6.9-16.01,5.25-28.89-1.94-15.18-6.87-28.56-14.25-38.7-8.51-11.69-20.44-19.19-32.74-20.58-.76-.09-1.55-.13-2.37-.13Z"/>
        <path class="cls-2" d="M477.87,443.14l-1.58-1.22c1.82-2.35,2.2-2.94,2.95-5.06.69-1.95-1.18-4.22-1.77-4.87-1.32-1.45-3.08-2.43-4.78-3.38l-10.29-5.73c-2.74-1.53-5.57-3.1-8.61-3.58-2.5-.39-5.88.08-7.88,2.57l-1.56-1.25c2.12-2.64,5.85-3.9,9.74-3.3,3.39.53,6.52,2.27,9.28,3.81l10.29,5.73c1.76.98,3.75,2.09,5.29,3.78,1,1.1,3.21,3.97,2.18,6.88-.84,2.37-1.33,3.13-3.26,5.62Z"/>
        <rect class="cls-2" x="199.63" y="302.27" width="14.21" height="2" transform="translate(-71.19 63.54) rotate(-14.94)"/>
        <rect class="cls-2" x="192.77" y="311.8" width="14.21" height="2" transform="translate(-73.88 62.1) rotate(-14.94)"/>
        <rect class="cls-2" x="185.9" y="321.34" width="14.21" height="2" transform="translate(-76.57 60.65) rotate(-14.94)"/>
        <rect class="cls-2" x="179.03" y="330.87" width="14.21" height="2" transform="translate(-79.26 59.2) rotate(-14.94)"/>
        <rect class="cls-2" x="192.77" y="332.71" width="14.21" height="2" transform="translate(-79.27 62.8) rotate(-14.94)"/>
        <rect class="cls-2" x="206.5" y="336.38" width="14.21" height="2" transform="translate(-79.75 66.47) rotate(-14.94)"/>
        <rect class="cls-2" x="220.23" y="340.05" width="14.21" height="2" transform="translate(-80.23 70.13) rotate(-14.94)"/>
        <rect class="cls-2" x="213.36" y="360.95" width="14.21" height="2" transform="translate(-85.85 69.07) rotate(-14.94)"/>
        <rect class="cls-2" x="206.5" y="370" width="14.21" height="2" transform="translate(-88.42 67.6) rotate(-14.94)"/>
        <rect class="cls-2" x="199.63" y="379.05" width="14.21" height="2" transform="translate(-90.98 66.14) rotate(-14.94)"/>
        <rect class="cls-2" x="192.77" y="388.09" width="14.21" height="2" transform="translate(-93.55 64.67) rotate(-14.94)"/>
        <rect class="cls-2" x="202.5" y="391.76" width="14.21" height="2" transform="translate(-94.16 67.31) rotate(-14.94)"/>
        <rect class="cls-2" x="212.24" y="395.43" width="14.21" height="2" transform="translate(-94.78 69.94) rotate(-14.94)"/>
        <rect class="cls-2" x="221.98" y="399.1" width="14.21" height="2" transform="translate(-95.4 72.58) rotate(-14.94)"/>
        <rect class="cls-2" x="231.72" y="402.77" width="14.21" height="2" transform="translate(-96.01 75.21) rotate(-14.94)"/>
        <path class="cls-2" d="M185.9,459.79c-14.77-40.75-29.1-82.33-42.61-123.59l1.9-.62c13.5,41.24,27.83,82.8,42.59,123.53l-1.88.68Z"/>
        <path class="cls-2" d="M239.23,524.99c-1.67-2.03-3.66-4.38-5.59-6.66-1.96-2.31-3.92-4.63-5.59-6.65l1.54-1.27c1.66,2.02,3.61,4.33,5.57,6.63,1.94,2.29,3.94,4.65,5.61,6.69l-1.54,1.27Z"/>
        <path class="cls-2" d="M271.94,527.97c-1.22-1.38-2.84-3.28-4.41-5.11-1.56-1.83-3.17-3.71-4.37-5.07l1.5-1.33c1.22,1.37,2.84,3.27,4.4,5.1,1.56,1.83,3.17,3.72,4.38,5.08l-1.5,1.33Z"/>
        <path class="cls-2" d="M329.96,547.23c-2.53-2.52-5.48-5.39-8.34-8.16-2.86-2.77-5.83-5.64-8.36-8.18l1.41-1.42c2.53,2.52,5.48,5.39,8.34,8.16,2.86,2.77,5.83,5.64,8.36,8.18l-1.41,1.42Z"/>
        <rect class="cls-2" x="378.07" y="505.13" width="2" height="23.05" transform="translate(-260.37 558.39) rotate(-57.47)"/>
        <rect class="cls-2" x="329.67" y="493.47" width="2" height="16.12" transform="translate(-250.36 348.97) rotate(-41.89)"/>
        <rect class="cls-2" x="299.24" y="488.31" width="2" height="16.12" transform="translate(-258.49 340.33) rotate(-43.23)"/>
        <path class="cls-2" d="M265.2,597.65l-15.58-13.75,1.32-1.5,14.67,12.95c11.63-4.45,194.21-74.27,210.33-81.54,13.41-6.05,15.26-8.46,15.17-9.35-.02-.17-.31-1.08-4.29-1.95-8.44-1.85-21.67-7.09-24.13-8.08-12.41,5.03-199.99,81.08-212.16,84.28-12.94,3.4-26.06-15.9-26.61-16.72l-.61-.91.97-.52c1.86-1.01,3.89-2.04,6.19-3.17,12.9-6.3,26.64-11.72,38.49-16.31,14.42-5.58,30.21-11.36,49.69-18.18,15.94-5.58,32.85-11.33,51.71-17.57,14.37-4.76,29.36-9.63,44.54-14.48,5.57-1.78,11.13-3.54,16.7-5.3,1.17-.37,2.35-.71,3.53-1.06,3.84-1.13,7.82-2.29,11.23-4.21.04-.02.07-.04.1-.06-1.56-1.2-3.2-2.2-4.93-3.25-1.31-.8-2.67-1.62-3.99-2.54-3.1-2.17-6.26-4.19-9.21-6.04-6.68-4.2-16.6-.8-24.57,1.93-.69.24-1.37.47-2.03.69l-196.99,66.25c-7.1,2.4-14.14-2.85-16.87-7.36-1.83-3.02-1.9-5.79-.19-7.42,1.69-1.61,10.42-4.31,28.43-9.78,8.97-2.73,19.14-5.81,30.42-9.42,59.71-19.07,138.93-44.64,176.6-56.99l.62,1.9c-37.68,12.35-116.91,37.92-176.62,57-11.29,3.61-21.47,6.7-30.45,9.43-14.65,4.45-26.21,7.96-27.63,9.32-.98.94-.78,2.78.52,4.94,2.31,3.82,8.52,8.52,14.52,6.5l196.99-66.25c.66-.22,1.33-.45,2.02-.69,8.38-2.87,18.8-6.44,26.28-1.73,2.97,1.87,6.15,3.9,9.29,6.1,1.26.88,2.59,1.69,3.87,2.47,1.72,1.05,3.51,2.13,5.17,3.42.25.2.78.61.89,1.3.09.55-.07,1.35-1.29,2.04-3.61,2.03-7.69,3.22-11.64,4.38-1.17.34-2.34.69-3.5,1.05-5.57,1.75-11.13,3.52-16.7,5.3-15.17,4.84-30.15,9.71-44.52,14.47-18.85,6.24-35.75,11.98-51.68,17.56-19.46,6.81-35.23,12.58-49.63,18.16-11.82,4.57-25.5,9.98-38.34,16.24-1.87.91-3.56,1.77-5.12,2.59,2.73,3.74,13.72,17.65,23.8,15,12.2-3.21,210.29-83.54,212.29-84.36l.38-.15.38.15c.15.06,15.21,6.17,24.18,8.13,2.6.57,5.62,1.5,5.85,3.7.25,2.37-2.4,5.1-16.33,11.38-16.62,7.49-209.06,81.06-211,81.8l-.57.22Z"/>
        <rect class="cls-2" x="315.89" y="552.23" width="2" height="20.77" transform="translate(-324.45 487.51) rotate(-53.93)"/>
        <rect class="cls-2" x="360.97" y="534.12" width="2" height="22.5" transform="translate(-289.67 607.14) rotate(-61.84)"/>
        <rect class="cls-2" x="399.65" y="521.6" width="2" height="24.69" transform="translate(-266.89 533.05) rotate(-53.04)"/>
        <rect class="cls-2" x="418.15" y="492.32" width="2" height="19.06" transform="translate(-233.8 536.48) rotate(-53.17)"/>
        <rect class="cls-2" x="437.64" y="507.21" width="2" height="17.8" transform="translate(-238.46 498.45) rotate(-48.15)"/>
        <path class="cls-2" d="M356.74,485.53c-1.56-1.66-3.59-3.97-5.56-6.19-1.96-2.21-3.98-4.5-5.52-6.15l1.46-1.37c1.56,1.66,3.59,3.97,5.56,6.19,1.96,2.21,3.98,4.5,5.52,6.15l-1.46,1.37Z"/>
        <rect class="cls-2" x="389.25" y="473.99" width="2" height="24.5" transform="translate(-232.85 464.5) rotate(-49.25)"/>
        <rect class="cls-2" x="403.82" y="453.85" width="2" height="15.16" transform="translate(-208.94 451.57) rotate(-47.82)"/>
        <rect class="cls-2" x="260.11" y="550.62" width="2" height="20.11" transform="translate(-312.23 328.7) rotate(-43)"/>
        <path class="cls-2" d="M410.58,397.83c-.24-1.49-23.78-149.69-27.72-174.68-.13-.82-.24-1.65-.35-2.47-.78-5.76-1.46-10.74-7.78-12.23-20.88.84-28.15,1.89-58.56,6.29l-7.54,1.09-.29-1.98,7.53-1.09c29.8-4.31,37.81-5.47,58.9-6.32h.13s.13.02.13.02c7.79,1.76,8.63,7.95,9.45,13.94.11.81.22,1.62.35,2.43,3.94,24.99,27.48,173.18,27.72,174.68l-1.97.31Z"/>
        <path class="cls-2" d="M97.35,264.74l-.52-1.93c1.6-.43,160.23-42.68,211.54-48.96l.24,1.99c-51.18,6.26-209.67,48.48-211.27,48.9Z"/>
        <path class="cls-2" d="M89.9,336.89l-54.89-4.83,1.21-1.47c.26-.31,25.95-31.5,36.52-48.69l1.7,1.05c-9.32,15.15-30.25,41.04-35.48,47.45l51.11,4.5-.18,1.99Z"/>
        <polygon class="cls-2" points="119.84 334.69 118.36 333.34 154.13 293.85 103.59 280.3 104.11 278.37 157.81 292.77 119.84 334.69"/>
      </g>
    </g>
  </g>
</svg>