<?xml version="1.0" encoding="UTF-8"?>
<svg id="Layer_2" data-name="Layer 2" xmlns="http://www.w3.org/2000/svg" viewBox="0 0 800 800">
  <defs>
    <style>
      .cls-1 {
        fill: none;
      }

      .cls-1, .cls-2, .cls-3 {
        stroke-width: 0px;
      }

      .cls-2 {
        fill: #000;
      }

      .cls-3 {
        fill: #8da259;
      }
    </style>
  </defs>
  <g id="EXPANDED">
    <g>
      <path class="cls-3" d="M534.98,520.91c.03,2.09-.79,4.34-2.39,5.73-2.06,1.8-4.83,2.6-7.51,1.89-2.06-.54-3.74-1.88-5.14-3.5-.14-.12-.3-.23-.42-.36-2.66-2.97-4.94-6.27-6.81-9.78-.52-.98-6.27-11.43-7.82-13.9-3.13-5.02-6.36-9.98-10.04-14.61-5.5-6.92-11.06-13.81-17.83-19.55-2.02-1.71-1.91-5.02-.41-6.96.72-.93,1.63-1.54,2.75-1.9,1.15-.37,3.08-.2,4.08.53.37.27.71.57,1.08.83,0,.01.01.02.02.03,7.49,5.58,14.23,11.99,20.41,19,1.66,1.88,17.46,22.42,18.11,23.51.41.69,2.89,2.73,3.38,3.32,1.78,2.1,3.5,4.26,5.02,6.56,1.79,2.69,3.48,5.84,3.52,9.16Z"/>
      <path class="cls-3" d="M592.26,599.79c-2.73-1.02-7.69.03-9.75.51-3.77.87-7.39,2.32-11.1,3.43-6.45,1.92-12.16,3.73-18.89,3.49-6.78-.24-14.57-2.56-20.91-4.98-2.53-.96-5.01-2.08-7.59-2.91-1.97-.63-5.76-1.97-7.8-1.11-1.06.44-1.45,2.6-1.89,3.76-.64,1.68-1.29,3.35-1.95,5.02-4.63,11.79-9.3,23.68-14.94,35.03.58,2.19,14.33,7.75,21.09,9.95,3.5,1.13,22.02,5.28,42.58,6.32,20.39,1.03,48.57-14.85,48.56-14.86-2.7-7.2-5.39-14.39-8.09-21.59-1.89-5.03-3.77-10.07-5.66-15.1-.68-1.8-1.15-4.09-2.12-5.75-.32-.56-.86-.94-1.55-1.19Z"/>
      <rect class="cls-1" width="800" height="800"/>
      <g>
        <path class="cls-2" d="M573.22,585.58c-2.09,0-4.35-.12-6.4-1.11-2.37-1.14-4.48-3.92-3.73-6.83,1.59-6.14,11.84-7,18.62-7.58,1.58-.13,2.95-.25,3.94-.41,2.29-.37,4.73-.98,5.48-2.76.73-1.73-.66-3.89-2.37-4.75-2.02-1.01-4.51-.92-6.72-.84l-20.85.76c-2.57.1-7.38-.47-9.04-3.17-.56-.91-.98-2.45.2-4.6,3.35-6.11,12.4-4.98,19.68-4.08,2.43.3,4.73.59,6.42.54,1.72-.05,3.91-.23,5.63-1.26,1.34-.8,2.64-2.47,2.34-4.24-.53-3.12-6.45-4.02-11.35-3.86-2.33.08-4.68.18-7.03.29-2.68.12-5.37.23-8.05.32-1.33.05-5.38.17-6.64-2.76-.66-1.53-.24-3.44,1.08-4.89,1.08-1.18,2.5-1.87,3.76-2.47l6.24-3.01c-3.18-.7-6.33-1.46-9.47-2.28-.9-.24-2.13-.56-3.01-1.48-1.61-1.69-1.12-4.42.27-5.99,1.3-1.47,3.11-2.14,4.86-2.71,7.58-2.45,15.46-3.82,23.42-4.07,3.52-.11,8.1-.05,12.38,1.43,4.45,1.54,7.96,4.52,9.63,8.16l-1.82.83c-1.44-3.14-4.53-5.73-8.47-7.1-3.96-1.37-8.31-1.43-11.66-1.32-7.77.25-15.46,1.58-22.87,3.98-1.49.48-3.02,1.04-3.98,2.13-.78.89-1.11,2.46-.32,3.28.45.47,1.2.7,2.07.93,3.93,1.03,7.9,1.96,11.89,2.79l2.33-1.13c2.54-1.23,5.18-2.5,8.04-3.18,2.3-.55,5.71-.91,8.92.49,1.65.72,3.04,2.15,3.55,3.65.36,1.05.28,2.08-.22,2.99-1.48,2.67-5.25,2.15-6.48,1.99-5.3-.72-10.6-1.63-15.87-2.71l-8.57,4.14c-1.15.55-2.33,1.13-3.15,2.02-.62.68-1.11,1.83-.72,2.75.49,1.13,2.04,1.63,4.74,1.55,2.67-.08,5.35-.2,8.03-.32,2.35-.1,4.71-.21,7.05-.29,2.91-.1,12.45,0,13.39,5.53.46,2.71-1.32,5.12-3.29,6.29-2.12,1.27-4.64,1.49-6.6,1.55-1.84.05-4.21-.24-6.72-.56-6.67-.83-14.98-1.86-17.68,3.06-.87,1.59-.4,2.34-.25,2.59.98,1.58,4.48,2.32,7.27,2.22l20.85-.76c2.32-.09,5.21-.19,7.69,1.05,2.54,1.27,4.53,4.43,3.31,7.31-1.13,2.68-4.18,3.5-7.01,3.95-1.07.17-2.47.29-4.09.43-6.22.53-15.62,1.32-16.85,6.09-.47,1.8.99,3.71,2.66,4.52,1.95.94,4.36.93,6.47.9,6.71-.06,13.65-.12,20.28-1.65,10.6-2.45,18.15-5.89,21.27-9.68,3.46-4.2,5.16-9.25,5.8-14.67-2.5.22-4.91-.29-6.91-1.85-5.84-4.57-6.89-15.37-7.18-23.08-.12-3.17.11-7.59,3.44-9.35,2.86-1.52,6.43.05,8.23,2.44,1.77,2.35,2.29,5.28,2.74,7.87,1.23,7,2.31,14.48,1.89,21.55,3.57-.99,7.15-3.38,9.35-5.8,5.32-5.85,6.7-13.76,6.93-19.36.52-12.57-4.26-25.35-13.09-35.05-4.57-5.02-9.36-8.55-14.24-10.51-1.64-.66-3.41-1.12-5.27-1.61-4.01-1.05-8.16-2.14-11.18-5.33-5.06-5.33-5.03-14.73-5.01-20.96.02-6.43-.66-14.26-6.2-17.78-4.56-2.9-10.64-1.52-14.93.15-1.41.55-2.83,1.18-4.21,1.79-3.65,1.61-7.42,3.28-11.5,3.72-4.61.5-11.9-1.35-13.7-6.99-1.96-6.14,3.8-11.59,6.89-14.52,1.84-1.75,5.92-6.21,4-10-1.19-2.35-4.32-3.16-6.79-2.75-2.84.47-5.45,2.21-7.76,3.74l-16.09,10.69c-2.54,1.69-5.84,3.42-8.73,1.8-2.2-1.23-2.95-3.91-2.71-6.01.24-2.11,1.29-4.01,2.4-5.74,5.78-9.06,13.86-16.48,23.38-21.46,1.05-.55,2.13-1.08,3.2-1.6,3.64-1.78,7.41-3.62,10.15-6.51,3.87-4.08,4.43-11.67,1.27-16.92-2.14-3.54-5.76-5.66-9.59-7.91-2.3-1.35-4.67-2.74-6.67-4.46-8.15-7.02-7.53-17.51-6.98-26.76.6-10.17,1.13-18.96-8.38-22.87-4.47-1.84-9.67-1.46-14.26-1.12-3.14.23-6.73.75-10.54,1.31-9.84,1.44-20.99,3.06-29,.24-4.82-1.69-8.9-4.94-12.85-8.09-4.25-3.38-8.64-6.88-13.91-8.38-8.73-2.49-17.77.49-23.81,3.44-4.79,2.33-9.34,5.34-13.74,8.25-2.52,1.66-5.12,3.38-7.75,4.97-14.58,8.79-29.77,13.12-43.95,12.53-16.58-.69-31.59-8.35-40.15-20.48-10.09-14.3-10.59-33.25-10.99-48.47l-.8-30.1c-.56.68-1.14,1.41-1.72,2.15-3.03,3.87-6.47,8.26-11.06,7.96-2.83-.18-5.1-1.32-6.76-3.39-3.32-4.13-4.07-11.66-2.3-23.01,2.2-14.12,8.4-16.32,11.9-16.38.05,0,.09,0,.14,0,4.45,0,8,3.54,9.57,7.07,1.66,3.75,1.77,7.98,1.87,11.72l.24,9.21h.02c5.99-4.26,12.89-7.18,19.97-8.47.72-.13,1.44-.25,2.17-.37,3.63-.59,7.38-1.19,10.01-3.48,2.31-2.01,3.42-4.95,4.59-8.06.86-2.27,1.74-4.62,3.15-6.66,4.55-6.61,13.31-8.28,19.98-7.64,5.19.5,10.18,2.15,15,3.75,1.89.63,3.85,1.27,5.79,1.84,16.45,4.81,34.46,4.46,50.71-.99l.64,1.9c-16.63,5.57-35.07,5.93-51.9,1.01-1.97-.57-3.94-1.23-5.85-1.86-4.72-1.56-9.61-3.18-14.57-3.66-6.11-.59-14.08.88-18.14,6.78-1.27,1.84-2.11,4.07-2.92,6.23-1.21,3.21-2.46,6.52-5.15,8.86-3.06,2.66-7.1,3.32-11,3.95-.72.12-1.43.23-2.13.36-6.79,1.23-13.42,4.04-19.17,8.12-.37.26-.74.57-1.11.92l.85,32.17c.4,14.96.89,33.57,10.63,47.37,8.21,11.63,22.64,18.97,38.6,19.63,13.78.57,28.59-3.66,42.83-12.24,2.6-1.57,5.18-3.27,7.68-4.93,4.45-2.95,9.06-5.99,13.97-8.38,6.36-3.1,15.89-6.23,25.24-3.56,5.66,1.62,10.21,5.24,14.61,8.74,3.99,3.18,7.77,6.18,12.26,7.77,7.55,2.66,18.44,1.07,28.05-.33,3.84-.56,7.47-1.09,10.68-1.33,4.81-.35,10.26-.75,15.17,1.26,10.83,4.45,10.21,14.81,9.62,24.84-.55,9.22-1.11,18.75,6.29,25.13,1.86,1.6,4.05,2.89,6.37,4.25,3.88,2.27,7.89,4.63,10.29,8.59,3.66,6.06,2.99,14.55-1.52,19.33-2.99,3.16-6.93,5.08-10.73,6.94-1.06.52-2.12,1.03-3.15,1.58-9.21,4.82-17.04,12-22.62,20.77-1.13,1.77-1.91,3.27-2.1,4.89-.16,1.4.31,3.27,1.7,4.04,1.95,1.09,4.58-.34,6.65-1.72l16.09-10.69c2.48-1.64,5.28-3.51,8.54-4.05,3.1-.52,7.2.46,8.9,3.81,2.53,4.99-2.24,10.3-4.4,12.36-4.12,3.91-7.75,8.12-6.36,12.46,1.44,4.52,7.77,6.01,11.58,5.61,3.77-.4,7.23-1.94,10.9-3.56,1.4-.62,2.84-1.26,4.29-1.82,4.72-1.84,11.46-3.32,16.73.02,6.44,4.09,7.15,13.07,7.13,19.48-.02,5.9-.05,14.82,4.46,19.57,2.63,2.77,6.33,3.74,10.24,4.77,1.84.48,3.75.98,5.51,1.69,5.17,2.07,10.21,5.78,14.98,11.02,9.19,10.08,14.15,23.38,13.61,36.48-.24,5.93-1.73,14.33-7.45,20.62-2.61,2.88-6.8,5.59-11,6.56-.63,5.97-2.45,11.58-6.31,16.27-4.36,5.29-14.57,8.56-22.36,10.36-6.84,1.58-13.89,1.64-20.71,1.7-.31,0-.63,0-.96,0ZM613.34,524.68c-.53,0-1.05.11-1.53.37-2.34,1.24-2.48,4.88-2.38,7.51.15,4.22.63,17.06,6.41,21.58,1.65,1.29,3.71,1.65,5.87,1.4.5-7.03-.59-14.56-1.83-21.61-.42-2.36-.89-5.04-2.37-7.01-.95-1.26-2.6-2.24-4.17-2.24ZM570.63,528.09c4.37.85,8.76,1.57,13.15,2.17,2.42.33,3.92,0,4.46-.97.23-.41.25-.86.08-1.38-.32-.96-1.33-1.97-2.45-2.46-2.7-1.18-5.65-.86-7.66-.38-2.63.63-5.15,1.84-7.59,3.02ZM286.72,189.56s-.07,0-.1,0c-6.94.11-9.27,10.31-9.95,14.68-1.65,10.61-1.02,17.83,1.88,21.45,1.31,1.63,3.05,2.5,5.33,2.65,3.54.23,6.49-3.55,9.36-7.2,1.09-1.39,2.14-2.73,3.22-3.85l-.29-10.89c-.09-3.55-.2-7.57-1.7-10.96-1.3-2.94-4.19-5.88-7.74-5.88Z"/>
        <path class="cls-2" d="M307.49,649.93c-1.82,0-3.65-.05-5.49-.16-28.21-1.61-52.89-12.53-67.71-29.96-11.01-12.95-17.09-29.74-22.46-44.56l-35.25-97.31c-6.17-17.04-12.56-34.66-14.87-53.04-1.82-14.46-1.69-35.54,9.3-53.82,8.85-14.73,23.47-25.26,36.37-34.55,6.69-4.82,14.78-7.07,22.61-9.25,5.79-1.61,11.77-3.28,17.1-5.97,12.25-6.19,20.43-15.14,29.86-26.2,11.17-13.1,18.02-30.78,21.54-55.64,1.09-7.71,1.84-15.62,2.56-23.27,1.16-12.31,2.35-25.04,5.04-37.34,3.58-16.4,11.69-38.82,29.97-52.49,12.22-9.14,28.6-13.88,46.14-13.39,14.45.41,29.81,4.2,46.97,11.58,9.05,3.89,19.97,9.7,24.02,20.11,2.92,7.49,1.65,15.91.02,23.16-2.79,12.41-7.01,24.54-12.54,36.07-2.86,5.96-6.13,11.61-9.23,16.89-1.55,2.63-3.49,4.67-5.37,6.63-1.4,1.46-2.85,2.97-4.13,4.74-2.56,3.52-3.56,7.62-2.66,10.98.34,1.25.92,2.44,1.54,3.69.82,1.66,1.67,3.38,1.92,5.32.65,4.88-2.72,9.19-6.34,11.29-3.82,2.22-8.29,2.77-12.55,3.02l-.12-2c4.01-.24,8.2-.75,11.66-2.76,3.05-1.77,5.89-5.34,5.36-9.3-.21-1.61-.95-3.11-1.73-4.7-.63-1.29-1.29-2.62-1.68-4.06-1.07-3.99.02-8.61,2.97-12.67,1.36-1.87,2.86-3.43,4.3-4.94,1.88-1.97,3.66-3.83,5.09-6.26,3.08-5.24,6.32-10.85,9.15-16.74,5.47-11.38,9.64-23.37,12.4-35.64,1.56-6.95,2.79-15,.07-21.99-3.79-9.72-14.26-15.26-22.95-19-16.92-7.27-32.04-11.01-46.24-11.41-17.07-.5-33.02,4.12-44.88,12.99-17.78,13.3-25.7,35.25-29.21,51.32-2.66,12.19-3.85,24.85-5,37.11-.72,7.67-1.47,15.61-2.57,23.37-3.58,25.25-10.57,43.26-22,56.66-9.57,11.23-17.9,20.33-30.48,26.69-5.5,2.78-11.58,4.47-17.46,6.11-7.66,2.13-15.57,4.34-21.97,8.95-12.74,9.18-27.19,19.58-35.83,33.96-10.69,17.79-10.81,38.39-9.03,52.54,2.29,18.16,8.63,35.67,14.77,52.61l35.25,97.31c5.57,15.37,11.33,31.27,22.1,43.94,14.47,17.02,38.64,27.69,66.31,29.26,17.98,1.02,34.44-3.32,51.85-7.91,6.09-1.61,12.38-3.27,18.75-4.68-11.73-23.6-17.38-49.87-16.42-76.2-12.46,10.52-30.78,10.53-47.23,9.08l-1.24-.11c-10.88-.96-22.01-1.94-32.16-.07-.67,4.65-1.99,9.36-5.89,11.98-2.96,1.98-7.17,1.04-9.54-1.01-2-1.73-2.58-4.04-1.56-6.16l.12-.25.23-.15c4.56-3.04,9.58-4.93,14.85-6.05.04-.33.08-.65.11-.97l1.86-16.72c1.12-10.04,2.27-20.42,2.82-30.65.52-9.59.52-19.37.52-28.82v-23.85c.01-6.98.01-14.21-1.82-21.02-2.6-9.65-8.76-17.99-14.72-26.06-1.63-2.21-3.32-4.49-4.91-6.77-9.74-13.95-13.24-26.39-10.39-36.97.81-3.01,2.13-5.86,3.42-8.61.08-.16.15-.33.23-.49-6.73-1.3-15.69-4.64-16.65-11.25-.52-3.6,1.41-7.87,4.92-10.88,3.08-2.64,6.72-3.66,9.73-2.74,6.48,1.98,8.76,10.35,7.16,16.97-.53,2.21-1.36,4.32-2.26,6.37.97.12,1.88.18,2.7.2,8.2.16,16.4-3.37,21.95-9.42l.19-.2c2.82-3.08,8.07-8.84,13.13-8.42,2.17.17,4.04,1.42,5.57,3.71,2.83,4.26,1.36,9.74.22,12.63-.92,2.36-2.13,4.61-3.3,6.78-.99,1.83-2.01,3.73-2.83,5.66-1.45,3.39-2.79,8.34-.96,12.65,2.41,5.69,9.2,8.14,15.19,10.3,17.42,6.29,33.88,14.95,48.93,25.74,6.29,4.51,12.91,10.18,14.37,18.06.77,4.18-.02,8.47-.79,12.62-.96,5.18-1.87,10.07.17,14.47,2.09,4.51,6.63,7.14,11.9,9.89l13.68,7.11-.92,1.78-13.68-7.11c-4.33-2.25-10.25-5.33-12.79-10.82-2.31-4.98-1.3-10.42-.32-15.68.74-3.97,1.5-8.08.79-11.9-1.33-7.19-7.6-12.52-13.56-16.8-14.9-10.68-31.2-19.25-48.44-25.48-6.06-2.19-13.6-4.91-16.35-11.4-2.1-4.96-.64-10.47.97-14.21.86-2.01,1.9-3.95,2.91-5.82,1.14-2.12,2.32-4.31,3.2-6.56.99-2.53,2.3-7.29-.03-10.8-1.18-1.78-2.51-2.7-4.05-2.82-4.09-.29-8.91,4.95-11.5,7.78l-.19.2c-5.92,6.46-14.7,10.19-23.46,10.06-.93-.02-2.14-.12-3.52-.31-.15.33-.31.66-.46.99-1.25,2.67-2.53,5.44-3.3,8.28-2.68,9.98.71,21.86,10.1,35.31,1.57,2.25,3.25,4.53,4.88,6.72,6.07,8.22,12.35,16.72,15.05,26.73,1.9,7.07,1.9,14.42,1.9,21.54v23.82c-.01,9.51-.02,19.32-.54,28.96-.55,10.29-1.71,20.69-2.83,30.75l-1.86,16.74c-.01.12-.03.24-.04.36,10.44-1.8,21.7-.81,32.08.11l1.24.11c16.81,1.48,35.59,1.42,47.46-10.16l1.83-1.79-.13,2.55c-1.41,27.21,4.35,54.44,16.68,78.75l.59,1.16-1.27.27c-6.76,1.46-13.45,3.23-19.92,4.93-15.8,4.17-30.82,8.13-46.98,8.13ZM260.38,573.8c-.63,1.64.45,2.92,1.17,3.55,1.76,1.53,4.99,2.29,7.12.86,3.07-2.06,4.27-5.93,4.91-9.88-4.67,1.06-9.12,2.79-13.21,5.48ZM246.71,342.1c-1.98,0-4.17.91-6.14,2.59-2.95,2.53-4.66,6.18-4.24,9.08.75,5.21,8.83,8.5,15.51,9.69.95-2.12,1.83-4.3,2.37-6.53,1.39-5.74-.43-12.95-5.8-14.59-.54-.17-1.12-.25-1.71-.25Z"/>
        <path class="cls-2" d="M556.12,659.25c-16.57,0-36.96-3.61-59.64-15.25l-.85-.43,39.95-88.14c-1.98-4.18-18.06-38.06-20.09-42.6-.19-.42-.15-.9.1-1.31,1.88-3.07,23.8-6.16,38.08-6.94,13.95-.76,29.24.33,30.86,2.2.26.3.37.68.29,1.05l-1.28,5.69-1.95-.44,1.14-5.1c-2.4-.89-14.46-2.19-28.96-1.41-17.23.94-33.89,4.14-36.29,5.83,2.79,6.14,19.92,42.22,20.1,42.59l.2.42-39.55,87.25c33.69,17.04,62.13,16.11,80.12,12.31,17.09-3.62,28.22-10.44,30.92-12.23l-23.01-57.79,1.86-.74,23.59,59.26-.63.46c-.49.35-12.17,8.71-32.22,12.98-6.38,1.36-14.04,2.36-22.76,2.36Z"/>
        <path class="cls-2" d="M527.15,509.14c-10.12-13.67-21.8-26.26-34.7-37.42-.99-.86-2.01-1.76-2.96-2.74-.63,1.25-1.37,2.45-2.25,3.58-3.81,4.87-7.93,6.85-12.22,5.89-12.58-2.83-22.13-30.74-23.82-37.5-3.66-14.65-3.68-29.89-3.71-44.64-.01-8.38-.02-17.05,1.15-25.53,1.69-12.13,7.93-21.04,12.94-28.2,4.37-6.24,7.82-11.16,6.85-15.86-.69-3.33-3.68-6.59-9.14-9.97-1.34-.83-2.77-1.73-4.26-2.67-10.49-6.64-24.87-15.73-31.37-12.57-2.02.99-3.18,3.15-3.52,6.6-.59,5.86.71,11.55,2.08,17.57.67,2.96,1.37,6.02,1.81,9.07,2.59,17.98-3.68,35.84-9.43,49.39-15.09,35.52-20.2,65.36-15.63,91.21l-1.97.35c-4.63-26.25.52-56.45,15.76-92.34,5.65-13.31,11.82-30.83,9.29-48.32-.43-2.97-1.12-5.99-1.78-8.91-1.35-5.92-2.74-12.03-2.12-18.21.42-4.15,1.98-6.91,4.64-8.2,7.5-3.65,21.81,5.4,33.31,12.68,1.48.94,2.91,1.84,4.24,2.66,6.04,3.74,9.24,7.32,10.05,11.27,1.14,5.54-2.53,10.78-7.17,17.41-4.89,6.98-10.98,15.68-12.6,27.33-1.16,8.34-1.15,16.94-1.14,25.25.02,14.62.04,29.75,3.65,44.16,2.19,8.77,11.56,33.61,22.32,36.03,3.48.79,6.91-.96,10.21-5.17.95-1.22,1.73-2.54,2.38-3.94-1.51-1.82-2.7-3.87-3.15-6.23-.51-2.67.41-5.7,2.34-7.72,1.5-1.57,3.4-2.28,5.33-2l.96.14-.11.97c-.51,4.48-1.12,9.74-3.04,14.5,1.04,1.12,2.21,2.17,3.39,3.19,13.02,11.25,24.79,23.95,35,37.74l-1.61,1.19ZM491.3,453.39c-.94.12-1.85.6-2.62,1.42-1.48,1.54-2.21,3.94-1.82,5.97.31,1.64,1.06,3.12,2.05,4.48,1.39-3.88,1.96-8.1,2.4-11.86Z"/>
        <path class="cls-2" d="M386.81,633.54v-1.11c-.02-11.12-3.04-22.06-8.71-31.62-.68-1.15-1.41-2.29-2.14-3.44-2.64-4.15-5.37-8.45-6.19-13.42-.79-4.81.22-9.91,3.11-15.59.52-1.01,1.53-2.22,2.61-3.5,1.65-1.96,3.92-4.66,3.53-6.04-.23-.82-.7-1.31-1.49-1.55-3.85-1.15-12.5,3.87-14.54,5.67l-1.32-1.5c2.17-1.91,11.53-7.55,16.44-6.09,1.45.43,2.44,1.45,2.85,2.93.66,2.4-1.67,5.17-3.93,7.86-1,1.19-1.94,2.31-2.35,3.12-2.69,5.29-3.65,9.99-2.92,14.36.76,4.57,3.37,8.69,5.91,12.68.74,1.16,1.47,2.32,2.17,3.49,5.67,9.54,8.76,20.41,8.98,31.5,9.25-1.47,17.37-9.22,19.12-18.44,1.82-9.58-3.33-20.21-11.98-24.71-.8-.42-1.66-.81-2.49-1.18-2.57-1.17-5.24-2.37-7.05-4.7-3.6-4.61-2.61-11.15,3.03-20.01,3.02-4.75,6.14-9.66,10.63-13.39,5.07-4.22,11.24-5.97,16.49-4.68l.42.1.21.37c4.85,8.46,10.77,16.34,17.59,23.41,1.3,1.35,2.41,3.2,3.58,5.16,2.1,3.51,4.28,7.15,7.55,7.8,1.88.37,2.24-.34,2.37-.6,1.39-2.8-2.92-11.85-5.15-13.83-1.43-1.26-2.96-2.48-4.44-3.66-2.98-2.38-6.06-4.83-8.6-7.84-5.22-6.2-7.6-11.08-7.08-14.52.24-1.58,1.08-2.84,2.49-3.73,2.99-1.9,3.71-6.18,3.11-9.59-.4-2.25-1.22-4.37-2.08-6.61-.57-1.47-1.16-2.99-1.61-4.55-.84-2.89-1.78-8.32,1.39-12.26,2.47-3.07,6.38-4.04,10.52-4.84l24.62-4.78c7.41-1.44,15.26-2.81,25.47-4.45,4.46-.72,9.23-1.46,13.95-2.07.44-.06.95-.15,1.51-.25,2.85-.52,7.16-1.32,8.86,1.79.56,1.02.68,2.08.36,3.14-.89,3-5.16,5.3-7.98,6.82-.49.26-.93.5-1.29.71l3.97-.76c1.85-.35,3.94-.75,6.01-.38,2.45.44,4.43,2.04,5.02,4.06.58,1.95-.12,4.24-1.82,5.97-1.42,1.45-3.28,2.32-4.92,3.08l-7.14,3.35c1.52.48,2.79,1.59,3.58,3.17,1.04,2.05,1.18,4.67.36,6.81-1.36,3.55-4.47,5.92-7.62,7.94-10.04,6.45-18.55,11.57-29,13.81l-.59.13-.32-.39c-.11.08-.27.25-.36.49-.02.06-.09.28,0,.4.44.62,1.47.81,3.15.6,7.94-1.01,15.72-3.8,22.49-8.06l.73-.46c2.06-1.32,4.2-2.68,6.74-2.99,1.81-.22,3.79.34,5.17,1.45,1.09.88,1.73,2.03,1.85,3.3.25,2.71-1.78,4.78-3.79,6.46-14.46,12.02-30.7,21.53-48.26,28.26l-.72-1.87c17.36-6.65,33.4-16.05,47.7-27.93,1.61-1.34,3.24-2.95,3.08-4.74-.08-.92-.65-1.56-1.11-1.93-.96-.77-2.4-1.18-3.67-1.02-2.09.25-4.03,1.49-5.91,2.69l-.74.47c-7.02,4.42-15.08,7.3-23.3,8.35-.91.11-3.68.47-5.03-1.42-.86-1.2-.29-2.81.74-3.61.71-.55,1.55-.62,2.21-.24,9.92-2.23,18.16-7.19,27.88-13.43,2.87-1.84,5.68-3.96,6.83-6.98.62-1.61.51-3.65-.27-5.19-.41-.8-1.17-1.83-2.52-2.2-1.65-.45-3.44.18-5.44,1.02l-41.13,19.29.03-1.6c.04-2.38,2.37-3.63,4.12-4.36l36.1-15.12s.05-.02.07-.03l13.26-6.22c1.56-.73,3.17-1.49,4.34-2.68,1.17-1.19,1.69-2.76,1.33-4-.44-1.48-2.05-2.4-3.46-2.65-1.71-.31-3.52.04-5.28.37l-8.99,1.72c-2.49,1.58-5.06,3.15-7.8,4.49-4.89,2.39-9.97,3.98-14.89,5.52-1.9.6-3.87,1.21-5.81,1.87-1.94.66-4.3.5-5.2-1.35-.73-1.52.12-3.3,1.37-4.14,4.62-3.13,11.54-4.46,17.1-5.52l14.48-2.77c.35-.22.71-.45,1.06-.68.97-.62,1.94-1.23,2.92-1.84.44-.28,1.05-.6,1.75-.98,2.38-1.28,6.36-3.43,7.01-5.62.16-.55.1-1.07-.2-1.62-1.01-1.84-4.32-1.23-6.74-.78-.6.11-1.15.21-1.62.27-4.69.6-9.44,1.34-13.88,2.06-10.18,1.64-18.02,3.01-25.4,4.44l-24.62,4.78c-3.75.73-7.29,1.59-9.34,4.13-2.6,3.24-1.76,7.93-1.03,10.45.43,1.47,1,2.96,1.56,4.39.86,2.23,1.76,4.54,2.19,6.99.67,3.77.02,9.07-4.01,11.63-.91.58-1.43,1.35-1.59,2.35-.42,2.77,1.93,7.36,6.63,12.93,2.41,2.86,5.41,5.25,8.32,7.57,1.5,1.19,3.05,2.43,4.51,3.72,2.19,1.93,7.67,12.09,5.62,16.22-.53,1.07-1.76,2.24-4.55,1.68-4.14-.83-6.66-5.03-8.88-8.73-1.11-1.86-2.17-3.62-3.31-4.8-6.83-7.09-12.78-14.96-17.67-23.42-4.55-.95-9.87.67-14.33,4.37-4.24,3.53-7.28,8.3-10.22,12.92-5.12,8.06-6.15,13.85-3.14,17.71,1.51,1.94,3.84,2.99,6.3,4.1.86.39,1.74.79,2.59,1.23,9.4,4.9,15,16.44,13.02,26.86-1.98,10.42-11.43,19.1-21.97,20.2l-1.1.12ZM492.06,503.89l-9.24,1.77c-5.38,1.03-12.07,2.31-16.35,5.21-.53.36-.94,1.11-.69,1.61.34.7,1.67.69,2.76.33,1.96-.66,3.94-1.28,5.85-1.88,5.07-1.59,9.86-3.09,14.61-5.41,1.05-.51,2.06-1.06,3.06-1.62Z"/>
      </g>
    </g>
  </g>
</svg>