<?xml version="1.0" encoding="UTF-8"?>
<svg id="Layer_2" data-name="Layer 2" xmlns="http://www.w3.org/2000/svg" viewBox="0 0 800 800">
  <defs>
    <style>
      .cls-1 {
        fill: none;
      }

      .cls-1, .cls-2, .cls-3 {
        stroke-width: 0px;
      }

      .cls-2 {
        fill: #000;
      }

      .cls-3 {
        fill: #d289ca;
      }
    </style>
  </defs>
  <g id="EXPANDED">
    <g>
      <g>
        <path class="cls-3" d="M678.08,323.79c-1.82-17.2-4.84-33.26-8.56-46.82-10.57-38.56-46.1-76.09-89.47-69.15-29.72,4.76-62.54,36.98-59.71,68.94,3.16,35.64,38.52,71.71,48,107.19,7.6,28.46,15.23,66.08,30.13,83.08,11.4,13,35.36,23.08,48.83,7.75,30.78-35.02,36.36-98.34,30.77-150.98Z"/>
        <g>
          <path class="cls-2" d="M564.92,662.96l-1.88-.67c4.84-13.56,4.58-18.86,4.17-26.88-.16-3.07-.33-6.54-.26-11.01l2,.03c-.07,4.4.1,7.84.25,10.88.42,8.27.69,13.73-4.29,27.66Z"/>
          <path class="cls-2" d="M378.22,676.05c-46.49,0-101.09-2.17-139.48-10.47l-.8-.17v-.82c.12-6.06.33-9.18.54-12.2.2-3,.41-6.09.52-12.1l.02-1.01,1.01.03,173.81,4.51c101.03-5.32,134.54-15.71,144.85-23.49,2.05-1.55,2.92-3.05,2.57-4.46-1.58-6.41-25-12.46-40.35-14.97l-.37-.06-.24-.29c-.97-1.18-2.55-2.77-4.23-4.45-4.5-4.51-9.6-9.62-10.16-13.52-1.21-8.3,5.92-13.59,12.81-18.7,2.26-1.67,4.59-3.41,6.53-5.18,16.55-15.23,30.75-32.68,42.21-51.86,27.76-46.49,37.91-102.87,27.83-154.68-4.66-23.98-16.46-42.06-33.23-50.92-15.71-8.3-34.78-8.05-55.16.73-7.55,3.25-25.21,6.8-32.08,2.02-1.95-1.36-2.91-3.33-2.78-5.71.09-1.73.38-3.38.83-4.97-3.52-4.83-4.8-10.45-3.81-16.79,1.12-7.19,6.67-14.17,13.18-16.6,5.02-1.88,11.05-.77,15.8,2.63l.24-1.28c9.51,1.8,14.5,6.42,16.18,15,1.69,8.6-2.64,17.91-10.77,23.17-8.17,5.29-16.94,5.43-24.06.38-2-1.42-3.73-2.94-5.18-4.56-.21,1.01-.35,2.05-.41,3.13-.09,1.7.54,3,1.93,3.97,5.54,3.86,21.85,1.35,30.14-2.22,20.95-9.02,40.62-9.25,56.88-.66,17.31,9.15,29.47,27.72,34.25,52.31,10.16,52.29-.07,109.18-28.08,156.09-11.55,19.35-25.88,36.95-42.57,52.31-2.01,1.85-4.39,3.61-6.69,5.32-6.71,4.98-13.06,9.68-12.02,16.8.47,3.25,5.75,8.53,9.6,12.39,1.65,1.66,3.09,3.1,4.12,4.3,5.46.91,39.26,6.91,41.6,16.4.56,2.26-.55,4.46-3.31,6.53-10.53,7.95-44.41,18.54-146.03,23.89l-172.88-4.48c-.11,5.4-.31,8.34-.5,11.19-.19,2.86-.39,5.8-.5,11.28,56.17,11.95,146.52,10.92,195.52,9.24,69.42-2.39,124.55-8.33,127.84-11.17l1.31,1.51c-4.55,3.94-66.08,9.49-129.08,11.66-15.7.54-35.64,1.01-57.33,1.01ZM475.06,292.88c1.51,1.9,3.41,3.67,5.71,5.3,6.42,4.55,14.37,4.39,21.82-.43,7.45-4.82,11.42-13.3,9.89-21.1-1.44-7.34-5.42-11.33-13.22-13.13.72.61,1.41,1.28,2.04,2.01,5.84,6.64,6.72,16.86,2.06,23.77-2.45,3.63-6.5,6.2-11.1,7.04-4.3.79-8.46-.03-11.7-2.32-1.69-1.19-3.08-2.76-4.13-4.54-.53,1.11-1,2.25-1.37,3.41ZM477.54,287.32c.94,2,2.36,3.78,4.17,5.05,2.8,1.97,6.42,2.68,10.19,1.99,4.08-.75,7.66-3.01,9.8-6.19,4.17-6.18,3.35-15.35-1.9-21.33-4.42-5.03-11.36-7.11-16.88-5.05-5.78,2.16-10.9,8.62-11.9,15.04-.82,5.23.07,9.94,2.63,14.06.48-1.26,1.05-2.48,1.68-3.68-1.13-2.91-1.41-6.15-.6-9.13,1.58-5.9,7.12-10.37,13.16-10.64l1.6-.07-.63,1.47c-1.76,4.08-4.28,7.75-6.71,11.31-1.65,2.41-3.26,4.76-4.6,7.18ZM486.27,269.65c-4.45.91-8.42,4.51-9.61,8.95-.55,2.03-.52,4.2,0,6.26,1.2-2,2.52-3.93,3.83-5.84,2.05-2.99,4.15-6.07,5.78-9.36Z"/>
          <path class="cls-2" d="M411.61,487c-.06,0-.11,0-.17,0-2.45-.11-16.94-6.01-35.64-13.72-6.87-2.83-12.79-5.28-16.06-6.54l-102.9-39.57,2.23-.98c11.98-5.24,31.95-10.37,44.51-11.42,4.92-.43,27.16,8.43,66.06,26.29,16.85,7.74,57,26.69,57.43,27.36l.33.52-.31.53c-7.27,12.42-11.78,17.53-15.49,17.53ZM262.15,427.07l98.31,37.8c3.29,1.27,9.23,3.72,16.11,6.55,13.01,5.37,32.67,13.47,34.96,13.57,3.51.1,9.15-8.58,13.31-15.63-11.28-5.63-108.88-52.62-120.78-52.62-.11,0-.21,0-.3.01-11.62.98-29.66,5.49-41.6,10.31Z"/>
          <path class="cls-2" d="M407.05,501.18c-.19,0-.37-.01-.55-.04-5.87-.78-24.14-8.36-35.06-12.9-1.61-.67-3.03-1.26-4.2-1.74-24.81-10.18-49.62-20.35-74.43-30.52l-36.6-15-1.97-8.18,1.94-.47,1.73,7.18,35.66,14.62c24.81,10.17,49.62,20.34,74.43,30.52,1.17.48,2.6,1.07,4.21,1.74,10.12,4.2,28.95,12.02,34.55,12.76,3.29.43,8.9-6.15,12.62-10.5,1.54-1.81,2.87-3.36,3.95-4.39q4.45-4.24,3.52-7.72c-.44-1.66-1.05-3.92-1.6-7.43l1.98-.31c.53,3.4,1.12,5.61,1.55,7.22,1.24,4.62.84,5-4.07,9.68-1,.96-2.3,2.48-3.81,4.24-4.28,5.02-9.57,11.22-13.85,11.22Z"/>
          <path class="cls-2" d="M449.89,631.51c-5.5,0-11.07-.29-16.68-.92-8.7-.98-18.39-2.92-24.23-9.88-6.56-7.81-6-18.82-4.87-29.43l3.81-35.75c.23-2.15.36-4.47.5-6.92.63-10.94,1.34-23.35,11.27-26.13,3.69-1.04,8.29-.05,12.69,2.55,2.84.1,5.73.84,8.47,2.37,5.29,2.96,9.05,7.99,12.37,12.43l60.98,81.58-1.44.38c-19.77,5.16-40.84,9.74-62.87,9.74ZM422.74,524.07c-.89,0-1.73.11-2.51.33-8.56,2.4-9.22,14.05-9.81,24.32-.14,2.48-.28,4.82-.51,7.02l-3.81,35.75c-1.08,10.18-1.64,20.72,4.41,27.93,5.39,6.42,14.61,8.24,22.92,9.18,27.24,3.07,53.26-2.15,77.38-8.39l-59.19-79.2c-3.2-4.28-6.82-9.13-11.75-11.88-1.26-.71-2.57-1.23-3.88-1.57.64.52,1.26,1.08,1.87,1.67,5.14,4.98,7.51,10.77,6.35,15.47-1.25,5.06-5.4,9.1-11.09,10.82-5.63,1.7-11.5.59-15.31-2.89h0c-6.3-5.76-7.32-13-2.73-19.35,2.88-3.99,7.83-7.09,13.31-8-1.96-.79-3.89-1.21-5.65-1.21ZM431.65,527c-6.07,0-11.83,3.15-14.95,7.46-3.94,5.45-3.02,11.69,2.46,16.7h0c3.29,3.01,8.42,3.95,13.38,2.45,4.93-1.49,8.66-5.09,9.73-9.39.98-3.94-1.25-9.14-5.8-13.55-1.48-1.44-3.08-2.67-4.7-3.67h-.12Z"/>
          <path class="cls-2" d="M328.61,594.93c-.96,0-1.93-.01-2.92-.04-7.51-.2-15.04-2.5-21.18-6.49-.09-.06-7.35-4.88-10.19-9.96-1.68-.6-3.38-1.37-4.94-2.07-1.35-.61-2.52-1.14-3.25-1.35-7.03-2.03-24.7-13.74-25.85-16.54-1.13-2.73-1.1-5.35.08-7.39,1.19-2.07,3.51-3.42,6.53-3.81,8.39-1.1,19.79,3.6,29.86,7.75,3.84,1.58,7.46,3.07,10.5,4.06.21.07,20.58,7.35,20.01,12.08-.24,1.95-3.04,2.38-5.13,2.53-5.55.42-12.66-1.89-18.94-3.92-2.9-.94-5.63-1.82-8.02-2.39-12.38-2.94-22.15-7.88-29.02-14.68l1.41-1.42c6.61,6.54,16.06,11.3,28.08,14.16,2.46.58,5.23,1.48,8.17,2.43,6.1,1.97,13.01,4.21,18.17,3.83,2.93-.21,3.29-.8,3.3-.8,0-1.18-9.02-6.78-18.65-9.91-3.11-1.01-6.77-2.51-10.64-4.11-9.83-4.05-20.99-8.64-28.84-7.62-2.42.32-4.17,1.3-5.06,2.83-.87,1.51-.86,3.46.04,5.63.87,1.72,17.02,13.21,24.56,15.38.87.25,2.09.8,3.52,1.44.94.42,2.01.91,3.12,1.36-.05-.26-.09-.52-.11-.77-.11-1.54.46-2.9,1.64-3.94,1.74-1.52,4.16-1.59,6.18-.17,1.73,1.21,3.03,3.56,2.04,6.07-.38.97-1.05,1.66-1.99,2.04-1.06.43-2.37.42-3.79.15,2.38,3.04,6.19,6.08,8.29,7.44,5.84,3.79,12.99,5.98,20.14,6.16,14.28.37,26.48-2,39.51-7.71l.8,1.83c-12.42,5.43-24.09,7.91-37.45,7.91ZM295.74,576.8c1.84.6,3.56.91,4.61.48.42-.17.71-.46.88-.92.59-1.5-.25-2.94-1.33-3.7-.99-.69-2.48-1.05-3.71.04-.73.64-1.04,1.37-.97,2.29.04.57.22,1.18.51,1.81Z"/>
          <path class="cls-2" d="M419.74,349.61c-32.06-4.55-56.95-33.75-59.68-37.06-.31-.38-.4-.89-.23-1.35l2.08-5.76c.2-.57.72-.95,1.34-.91.6.02,1.12.43,1.28,1.02,5.95,21.12,55.34,39.43,61.25,41.55l2.39-4.33,1.75.97-2.64,4.79c-.33.59-1.02.86-1.66.64-5.63-1.98-54.08-19.56-62.44-41.35l-1.35,3.74c3.6,4.31,27.61,31.75,58.19,36.09l-.28,1.98ZM425.52,347.55s0,0,0,0h0Z"/>
          <path class="cls-2" d="M428.56,344.12c-41.77-22.89-62.28-37.71-60.97-44.06.37-1.77,2.12-2.39,3.1-2.49h.12s.11,0,.11,0c11.75,1.61,18.94,5.96,21.43,7.71,5.51-10.43,50.79-96.18,50.9-96.39,1.33-2.52,3.62-5.96,6.97-7.99,4.67-2.83,11.43-.7,16.86,1.01.87.27,1.7.53,2.47.75,12.34,3.56,24.18,9.55,34.24,17.33.27.21.54.41.8.6,1.89,1.4,3.67,2.73,3.41,5.77-.2,2.25-1.81,4.97-3.23,7.36-.6,1.01-1.16,1.96-1.54,2.75l-9.91,20.59-1.8-.87,9.91-20.59c.42-.87,1-1.86,1.62-2.9,1.31-2.21,2.8-4.72,2.95-6.52.16-1.85-.68-2.56-2.61-3.99-.27-.2-.55-.41-.83-.63-9.86-7.63-21.47-13.51-33.57-16.99-.78-.22-1.62-.49-2.51-.77-5.05-1.59-11.33-3.56-15.23-1.2-2.96,1.79-5.03,4.91-6.24,7.21-.02.04-46.18,87.46-51.45,97.42l-.58,1.09-.95-.79c-.07-.06-7.41-6.04-21.26-7.98-.28.05-1.11.25-1.24.89-.38,1.91,2.82,10.58,59.97,41.9l-.96,1.75Z"/>
          <path class="cls-2" d="M466.28,525.33c-9.21,0-18.82-1.24-26.85-3.59-2.76-.81-6.62-2.37-9.31-5.16-1.09-1.14-1.7-2.98-2.24-4.61-.26-.79-.62-1.86-.84-2.09-3.56-3.45-15.21-7.41-20.66-8.76l.48-1.94c5.26,1.31,17.46,5.3,21.56,9.27.57.55.91,1.58,1.34,2.89.45,1.35,1.01,3.04,1.79,3.85,1.86,1.94,4.85,3.58,8.43,4.63,11.96,3.51,28.2,4.48,40.4,2.41,18.69-3.17,26.99-11.22,30.67-17.41,12.22-20.58,37.66-63.42,35.9-91.28-1.38-21.85-16.29-52.73-39.68-51.45l-.11-2c24.65-1.39,40.36,30.65,41.79,53.32,1.8,28.47-23.85,71.67-36.18,92.42-7.05,11.87-21.32,16.54-32.06,18.36-4.48.76-9.41,1.13-14.45,1.13Z"/>
          <path class="cls-2" d="M336.41,372.62l-13.37-8.71,26.35-27.76,1.45,1.38-24.7,26.01,10.33,6.73,35.93-20.66c-5.06-1.59-16.75-6.1-18.86-14.35-1.3-5.05,1.22-10.53,7.49-16.28l.72-.66,19.53,20.16,8.81,8.97-8.12,5.14-.46-.16c-.28-.1-2.64-.94-5.83-2.41l-.24.14-39.04,22.45ZM358.44,333.27c3.16,9.22,20.28,16,23.29,17.12l5.2-3.3-7.08-7.21-18.17-18.76c-5.17,4.96-7.25,9.55-6.2,13.65,1.3,5.07,7.09,8.66,12.06,10.86-4.82-3.07-9.4-7.06-11-11.72l1.89-.65Z"/>
          <path class="cls-2" d="M340.26,586.25c-11.17,0-22.02-2.67-30.41-7.95l1.06-1.69c15.07,9.47,38.39,10.23,56.7,1.85l.83,1.82c-8.73,4-18.58,5.98-28.19,5.98Z"/>
          <polygon class="cls-2" points="459.49 381 439.62 370.82 472.5 300.33 474.31 301.18 442.25 369.92 458.57 378.28 494.11 303.89 495.91 304.75 459.49 381"/>
          <path class="cls-2" d="M488.44,383.3c-7.85,0-15.46-5.8-17.35-13.46-1.99-8.1,2.64-17.32,10.33-20.55,3.37-1.42,6.82-1.59,9.72-.49.01,0,.02,0,.03.01l.25-.65.85.2c6.15,1.43,11.15,6.52,12.96,12.52.74-.47,1.64-.89,2.49-.96l.14,1.99c-.6.04-1.45.54-2.14,1.04.22,1.28.29,2.59.2,3.9-.59,8.32-7.84,15.66-16.15,16.37-.45.04-.89.06-1.34.06ZM487.09,350.09c-1.58,0-3.25.35-4.9,1.05-6.82,2.87-10.93,11.04-9.16,18.22,1.77,7.18,9.2,12.51,16.58,11.89,7.37-.63,13.8-7.14,14.33-14.52.07-.93.04-1.86-.08-2.77-1.85.23-7.67.69-10.34-2.25-2.64-2.91-3.72-7.13-2.92-10.96-.05-.02-.11-.04-.17-.07-1.03-.39-2.16-.59-3.33-.59ZM492.43,351.81c-.43,3.03.49,6.27,2.56,8.54,1.8,1.99,6.28,1.9,8.48,1.63-1.18-4.51-4.39-8.51-8.57-10.57,1.3,1.48,2.11,3.31,2.16,5.18l-2,.06c-.05-1.82-1.07-3.62-2.64-4.85Z"/>
          <path class="cls-2" d="M393.63,606.82c-1.36,0-2.77-.27-4.19-.82-4.51-1.74-8.28-5.97-9.37-10.54-1.94-8.13,1.79-16.65,4.51-22.88,7.96-18.22,22.04-72.56,22.18-73.11l1.94.5c-.14.55-14.26,55.05-22.29,73.41-3.38,7.73-6.04,14.69-4.39,21.61.94,3.96,4.22,7.63,8.14,9.14,2.82,1.08,5.56.86,7.72-.62l1.13,1.65c-1.6,1.1-3.44,1.66-5.38,1.66Z"/>
          <polygon class="cls-2" points="398.06 606.19 360.49 598.47 389.16 516.85 383.93 494.27 385.88 493.82 391.24 516.97 391.14 517.24 363.14 596.97 398.47 604.23 398.06 606.19"/>
          <path class="cls-2" d="M392.78,397.62c-3.1,0-5.5-.2-9.87-2.33l-.73-.36.21-.79c3.55-13.73,6.14-22.83,12.17-33.44l1.74.99c-5.79,10.18-8.37,19.02-11.77,32.15,3.93,1.81,5.9,1.8,9.31,1.78h.78c4.72-6.12,8.61-11.72,12.38-17.15,3.55-5.11,6.9-9.94,10.5-14.52.81-1.03,2.09-1.13,3.22-1.22.82-.07,1.59-.13,1.86-.5,1.59-2.21,3.05-4.39,4.44-6.66-10.63-2.97-21.58-4.07-32.59-3.27-.06.35-.11.68-.17.99-.46,2.66-.55,3.13,1.35,3.79,6.29,2.18,13.36,3.37,21.01,3.53l-.04,2c-7.86-.16-15.14-1.39-21.63-3.64-3.51-1.22-3.14-3.34-2.67-6.03.09-.52.19-1.09.28-1.72l.11-.79.8-.06c11.96-.97,23.85.26,35.36,3.65l1.24.36-.67,1.11c-1.62,2.71-3.33,5.3-5.21,7.91-.81,1.12-2.2,1.24-3.32,1.33-.76.06-1.54.13-1.81.47-3.56,4.53-6.9,9.33-10.43,14.42-3.86,5.56-7.84,11.31-12.74,17.61l-.3.39h-1.74c-.37,0-.73.01-1.08.01Z"/>
          <path class="cls-2" d="M347.12,512.22l-73.63-27.02,4.87-11.21,73.74,29-4.98,9.22ZM276.17,484.06l70.02,25.69,3.08-5.71-69.84-27.47-3.26,7.49Z"/>
          <path class="cls-2" d="M337.38,516.77l-55.49-21.18,3.49-7.61,56.5,20.25-4.5,8.53ZM284.6,494.49l51.84,19.78,2.6-4.93-52.61-18.86-1.83,4Z"/>
          <rect class="cls-2" x="291.47" y="471.69" width="22.84" height="2" transform="translate(-255.8 527.82) rotate(-62.98)"/>
          <rect class="cls-2" x="334.1" y="488.71" width="20.84" height="2" transform="translate(-247.83 577.04) rotate(-63.26)"/>
          <path class="cls-2" d="M240.91,640.71l-1.83-.81c3.02-6.86,25.98-7.27,53.41-7.1,2.72.02,5.31.05,7.64.03,10.55,0,27.16-.63,37.18-1.78,2.11-.24,4.29-.28,6.4-.31,1.86-.03,3.62-.06,5.33-.22,6.43-.59,11.95-1.69,16.88-3.34,1.62-.54,3.02-1.38,4.05-2.42,1.6-1.61,2.19-3.4,1.73-5.18-.57-2.17-2.73-4.19-5.26-4.91-1.96-.55-4-.45-6.15-.33-1.46.08-2.96.16-4.46.02l-1.31-.12c-3.88-.37-7.89-.74-11.86-.95l-89.84-4.66c-1.01-.05-1.86-.7-2.17-1.66-.32-.97-.01-2.01.78-2.65,3.08-2.51,7.55-2.94,11.86-3.35.82-.08,1.64-.16,2.43-.25,25.79-3,95.25-4.23,130.54,4.24l-.47,1.95c-15.01-3.6-39.03-5.85-67.62-6.33-23.28-.39-47.7.45-62.23,2.14-.81.09-1.63.17-2.47.25-4.02.38-8.18.78-10.79,2.91-.21.17-.17.39-.14.48.03.1.13.27.38.29l89.84,4.66c4.02.21,8.05.59,11.95.96l1.31.12c1.35.13,2.72.05,4.17-.02,2.22-.12,4.52-.24,6.81.41,3.22.91,5.89,3.45,6.65,6.32.65,2.47-.15,4.99-2.24,7.09-1.27,1.28-2.9,2.26-4.84,2.91-5.08,1.7-10.75,2.83-17.34,3.44-1.79.17-3.67.2-5.48.23-2.06.03-4.2.07-6.21.3-10.09,1.16-26.8,1.79-37.41,1.8-2.3-.01-4.92-.01-7.65-.03-18.26-.12-48.83-.31-51.57,5.9Z"/>
          <rect class="cls-2" x="239.98" y="619" width="22.44" height="2" transform="translate(-384.93 826.97) rotate(-85.97)"/>
          <path class="cls-2" d="M500.29,218.24l-1.84-.78c4.17-9.84,8.83-19.61,12.86-28,1.59-3.3,3.26-6.63,4.87-9.84l.86-1.72c.39-.79,1.01-1.76,1.72-2.89,1.43-2.27,3.4-5.38,3.41-7.05.01-2.96-23.81-14.41-30.34-14.58-2.06-.06-2.1.02-3.23,1.97l-.12.2c-1.14,1.97-2.28,3.95-3.4,5.94l-.47.84c-2.13,3.76-4.32,7.64-6.19,11.58-3.48,7.35-6.89,14.89-10.18,22.18l-1.99,4.4-1.82-.82,1.99-4.39c3.3-7.3,6.7-14.85,10.2-22.21,1.9-4.01,4.12-7.92,6.26-11.71l.47-.84c1.12-1.99,2.26-3.97,3.41-5.95l.12-.2c1.31-2.27,1.9-3.04,5.01-2.97,5.9.15,32.32,11.38,32.29,16.59,0,2.24-1.98,5.35-3.72,8.1-.66,1.04-1.28,2.02-1.63,2.72l-.86,1.72c-1.61,3.21-3.28,6.53-4.86,9.81-4.03,8.37-8.67,18.11-12.83,27.91Z"/>
          <path class="cls-2" d="M526.38,169.76l-3.03-.97.61-1.9,1.67.53c3.84-5.54,11.12-22.58,12.11-24.91-.15-.86-.6-2.62-1.41-3.57-2.8-3.3-28.39-14.33-33.83-15.45-1.65-.34-3.31.42-4.13,1.89-9.38,16.67-12.38,25.8-11.19,27.46.05.07.19.27.91.14l.37,1.97c-1.63.3-2.47-.35-2.9-.94-2.08-2.9,1.65-12.86,11.07-29.61,1.25-2.23,3.77-3.38,6.28-2.86,5.36,1.1,31.64,12.2,34.95,16.11,1.47,1.73,1.89,4.73,1.91,4.86l.04.27-.11.25c-.36.85-8.79,20.83-12.89,26.18l-.43.56Z"/>
          <rect class="cls-2" x="421.83" y="288.77" width="2" height="72.64" transform="translate(-71.13 526.29) rotate(-59.72)"/>
          <path class="cls-2" d="M442.35,337.51c-14.66-.53-20.53-.98-36.22-6.14l.62-1.9c15.43,5.07,21.22,5.51,35.66,6.04l-.07,2Z"/>
          <rect class="cls-2" x="401.94" y="491.84" width="14.45" height="2" transform="translate(-188.77 722.57) rotate(-71.32)"/>
          <path class="cls-2" d="M501.67,227.2c-23.08-20.53-49.65-21.27-49.92-21.27l.04-2c.27,0,27.59.76,51.21,21.78l-1.33,1.49Z"/>
          <path class="cls-2" d="M516.02,615.73c-.44,0-.85-.21-1.11-.57l-61.29-84.27,1.62-1.18,60.73,83.5,1.54-2.65c.61-1.05.5-2.38-.27-3.32l-18.79-22.82,1.54-1.27,18.79,22.82c1.3,1.58,1.48,3.83.46,5.6l-2.02,3.48c-.23.4-.65.66-1.12.68-.02,0-.05,0-.07,0Z"/>
        </g>
        <path class="cls-2" d="M554.99,678.58c-53.75,0-106.9-1.27-159.03-2.52-89.77-2.15-182.6-4.38-275.9,0l-.09-2c93.38-4.37,186.24-2.14,276.04,0,90.08,2.16,183.22,4.39,277.17,0l.09,2c-39.63,1.86-79.11,2.53-118.28,2.53Z"/>
      </g>
      <rect class="cls-1" width="800" height="800"/>
    </g>
  </g>
</svg>